<svg width="91" height="91" fill="none" xmlns="http://www.w3.org/2000/svg"><g clip-path="url(#a)"><g clip-path="url(#b)"><path d="M49.12 79.899c-1.17 0-2.43-.27-3.69-.81-.45-.18-.99-.54-1.62-1.08l-1.08-.99s-30.42-20.79-31.86-22.41c-1.44-1.53-2.43-5.22-2.97-5.94-.99-1.26-2.79-2.88-5.13-4.5-2.07-1.53-2.43-2.88-2.61-4.05-.18-1.35.36-3.24.54-3.78l6.57-18.9c.27-.63.9-2.07 2.25-2.79.63-.36 1.53-.72 2.52-.72.9 0 1.8.18 2.61.63 2.07 1.08 4.77 2.43 6.66 3.33l2.16.99 22.95 8.28.54.27c3.33 1.8 9.45 5.04 13.68 7.02 2.52 1.17 6.84 4.41 11.79 8.19 3.78 2.88 5.76 4.41 7.02 5.04l.27.09.18.18c4.05 3.51 4.86 7.11 2.25 10.71-.9 1.26-2.61 2.79-5.85 2.79h-.54c0 1.44-.54 3.06-1.89 4.41-1.62 1.62-3.78 2.52-6.12 2.52-.81 0-1.62-.09-2.34-.27-.09 1.35-.54 2.88-1.71 4.05-1.53 1.62-4.23 2.7-6.75 2.7-.36 0-.63 0-.99-.09-.27.72-.63 1.44-1.08 2.07a6.925 6.925 0 0 1-5.76 3.06Z" fill="#A78867"/><path d="M60.91 34.989c.54.18 1.26.54 1.98.81-.9-.54-1.71-.99-2.34-1.35-4.23-1.98-10.35-5.22-13.68-7.02l-.45-.27-21.24-7.65c-.63.54-1.35 1.17-2.07 1.89-.99.99-2.34 3.15-3.06 10.17-.36 3.42-.45 6.48-.36 6.57l-.09 1.44.81.9c.9.99 2.34 1.35 4.32 1.17 1.35-.09 2.79-.54 3.87-1.08 3.15-1.62 4.95-6.03 6.12-9 .27-.54.36-.99.54-1.35 2.25-.27 8.73-.99 10.98-1.26 2.07.9 9.81 4.23 14.67 6.03Z" fill="#94704F"/><path d="M72.07 42.549c-4.05-3.06-9-6.48-11.61-7.74-4.68-2.16-12.15-6.21-14.13-7.29-2.25 0-8.73.18-11.07.27-.18.27-.36.72-.63 1.26-1.44 2.79-3.6 7.02-6.93 8.37-1.08.45-2.52.72-3.96.72-2.07 0-3.42-.54-4.23-1.53l-.72-.9.27-1.44s.27-3.15.99-6.57c1.35-6.84 2.97-8.91 3.96-9.81 3.42-3.06 6.21-3.96 10.71-4.77 1.17-.18 2.79-.63 4.5-1.08 4.05-.9 8.19-1.98 10.98-1.98.81 0 1.44.09 2.07.27 2.43.72 8.01 2.25 11.34 2.88 1.8.36 3.69 1.17 5.31 1.89 1.17.45 2.52 1.08 3.06 1.17.72-.09 3.24-1.26 4.59-1.89.72-.36 1.44-.54 2.07-.54.9 0 1.89.27 2.7.9 1.62 1.08 2.07 2.79 2.16 3.06l6.3 19.53c.09.09.45 1.53.27 2.88-.18.99-.54 2.34-2.43 3.6-4.41 2.88-5.13 3.69-5.22 3.69l-1.71 1.17s-3.69-2.34-8.64-6.12Z" fill="#E6C7A4"/><path d="M36.79 80.259c-1.44 0-2.79-.36-3.87-1.08a8.91 8.91 0 0 1-2.25-2.25c-.72.18-1.44.27-2.16.27-1.26 0-2.52-.36-3.42-.99-1.62-1.17-2.79-2.79-3.33-4.41h-.36c-.9 0-1.8-.18-2.52-.54-1.98-.9-3.33-2.79-3.78-4.95h-.09c-.36 0-.72-.09-.99-.09-1.62-.36-3.06-1.35-4.05-2.79-1.17-1.71-1.53-3.96-1.08-5.94.72-3.06 3.51-6.21 7.2-6.21.36 0 .72 0 1.17.09 2.25.45 3.87 2.07 4.68 4.05.72-.18 1.44-.27 2.16-.27 1.17 0 2.34.27 3.33.81 1.26.72 2.16 1.89 2.61 3.33.45-.09.99-.18 1.44-.18 1.53 0 2.88.54 4.14 1.44 1.71 1.35 2.43 3.51 2.25 6.03 1.44.27 2.7.81 3.6 1.62 3.24 2.88 2.34 6.48 1.98 7.83-.54 2.7-3.87 4.23-6.66 4.23Z" fill="#D2AA86"/><path d="M43.9 73.329c0-1.62-.45-3.51-2.34-5.22-.9-.81-2.25-1.44-3.6-1.62.18-2.52-.54-4.59-2.25-6.03-1.17-.99-2.61-1.44-4.14-1.44-.45 0-.99.09-1.44.18-.45-1.44-1.35-2.61-2.61-3.33-.99-.54-2.16-.81-3.33-.81-.72 0-1.44.09-2.16.27-.81-1.98-2.43-3.6-4.68-4.05-.36-.09-.81-.09-1.17-.09-1.35 0-2.7.45-3.78 1.17-.09 1.71-2.07 5.49.72 8.46 2.79 2.97 5.31-.63 5.58-.54h.09c-.81 1.8-2.25 4.23.54 6.66 2.79 2.43 6.03-1.26 6.12-1.26-.45 1.71-1.44 5.04 1.89 7.29 3.24 2.25 6.3-1.98 7.02-2.16.54.9-.72 4.23 2.88 6.3 3.69 2.07 6.3-1.8 6.66-3.78Z" fill="#E6C7A4"/><path d="M73.87 33.099c-11.52 1.26-20.7-7.38-24.84-7.47-4.14-.18-13.77 2.16-13.77 2.16 2.34-.09 8.82-.18 11.07-.27 1.98 1.08 9.45 5.04 14.13 7.29 2.7 1.26 7.56 4.68 11.61 7.74 0 0 9.09-10.26 1.8-9.45ZM76.3 45.699c2.61 1.89 4.32 2.97 4.32 2.97l1.71-1.17c.09-.09.81-.81 5.22-3.69.27-.18.54-.45.72-.63-3.24.99-11.97 2.52-11.97 2.52Z" fill="#D2AA86"/></g></g><defs><clipPath id="a"><path fill="#fff" transform="translate(.07 .159)" d="M0 0h90v90H0z"/></clipPath><clipPath id="b"><path fill="#fff" transform="translate(.07 10.059)" d="M0 0h90v70.2H0z"/></clipPath></defs></svg>