<svg width="168" height="102" viewBox="0 0 168 102" fill="none" xmlns="http://www.w3.org/2000/svg">
<g clip-path="url(#clip0)">
<path d="M146.8 102C139.6 102 135.4 98.4 135.2 93.2H141.9C141.9 94.8 142.9 97.1 147.3 97.3C150.2 97.3 151.6 95.7 151.6 94.4C151.4 92.4 148.8 92.1 146.2 91.8C143.4 91.3 141.1 90.8 139.5 90C137.4 88.9 135.9 86.6 135.9 83.8C135.9 79.2 139.8 75.6 146.5 75.6C153 75.6 157 79 157.5 83.9H151C150.8 82.6 150.7 80.5 146.7 80.5C144.1 80.5 142.4 81 142.3 82.8C142.3 85.4 147.7 85.3 151.8 86.4C155.7 87.4 158.3 89.8 158.3 93.4C158.4 99.5 153.1 102 146.8 102Z" fill="black"/>
<path d="M23.3 59.3L45.7 46.4L57.5 66.9H27.8L23.3 59.3Z" fill="black"/>
<path d="M73.4 75.5H67V101.3H73.4V75.5Z" fill="black"/>
<path fill-rule="evenodd" clip-rule="evenodd" d="M13.2 88.6C13.2 92.5 16.6 96 20.6 96C24.7 96 28.1 92.7 28.1 88.6C28.1 84.7 24.7 81.2 20.6 81.2C16.5 81.2 13.2 84.7 13.2 88.6ZM20.4 102C13 102 7 96 7 88.6C7 81.2 13 75.4 20.4 75.4C23.2 75.4 25.8 76.2 28.1 77.7V75.7H34.3V101.5H28.1V99.9C26 101.2 23.3 102 20.4 102Z" fill="black"/>
<path d="M106.2 66.9L75.2 12.9L97.6 0L136.1 66.9H106.2Z" fill="black"/>
<path fill-rule="evenodd" clip-rule="evenodd" d="M42.6 88.6C42.6 92.5 46 96 50.1 96C54 96 57.5 92.7 57.5 88.6C57.5 84.7 54.1 81.2 50.1 81.2C46.1 81.2 42.6 84.7 42.6 88.6ZM50 102C42.6 102 36.6 96 36.6 88.6C36.6 81.2 42.6 75.4 50 75.4C52.8 75.4 55.4 76.2 57.5 77.7V66.9H63.9V101.4H57.5V99.8C55.4 101.2 52.8 102 50 102Z" fill="black"/>
<path d="M49.5 36.3L71.9 23.5L96.9 66.9H73.4V73.2H67V66.9L49.5 36.3Z" fill="black"/>
<path fill-rule="evenodd" clip-rule="evenodd" d="M111.6 88.6C111.6 92.5 115 96 119 96C123 96 126.4 92.7 126.4 88.6C126.4 84.7 123.1 81.2 119 81.2C115 81.2 111.6 84.7 111.6 88.6ZM118.8 102C111.4 102 105.4 96 105.4 88.6C105.4 81.2 111.4 75.4 118.8 75.4C121.6 75.4 124.2 76.2 126.3 77.7V75.7H132.7V101.5H126.3V99.9C124.2 101.2 121.6 102 118.8 102Z" fill="black"/>
<path fill-rule="evenodd" clip-rule="evenodd" d="M82.2 88.6C82.2 92.5 85.6 96 89.6 96C93.7 96 97.1 92.7 97.1 88.6C97.1 84.7 93.7 81.2 89.6 81.2C85.6 81.2 82.2 84.7 82.2 88.6ZM96.9 66.9H103.3V101.4H96.9V99.8C94.8 101.3 92.2 102.1 89.2 102.1C81.8 102.1 75.8 96.1 75.8 88.7C75.8 81.3 81.8 75.5 89.2 75.5C92.1 75.5 94.6 76.3 96.9 77.8V66.9Z" fill="black"/>
</g>
<defs>
<clipPath id="clip0">
<rect width="168" height="102" fill="white"/>
</clipPath>
</defs>
</svg>
