<svg xmlns="http://www.w3.org/2000/svg" width="135" height="45" viewBox="0 0 135 45">
    <g fill="none">
        <path fill="#A6A6A6" d="M123.902 0H10.727c-.413 0-.82 0-1.232.002-.344.002-.686.009-1.034.015-.755.008-1.509.075-2.254.198-.745.126-1.465.364-2.139.706-.672.344-1.287.791-1.82 1.326-.538.532-.985 1.148-1.326 1.823-.342.674-.58 1.396-.703 2.142-.126.744-.193 1.497-.202 2.252-.01.345-.011.69-.017 1.036v26.003c.006.35.007.688.017 1.038.009.754.076 1.507.202 2.252.123.745.36 1.468.703 2.142.34.673.788 1.286 1.325 1.816.532.537 1.147.984 1.821 1.326.674.343 1.394.582 2.139.71.745.122 1.499.189 2.254.199.348.007.69.012 1.034.012.411.002.819.002 1.232.002h113.175c.404 0 .815 0 1.22-.002.342 0 .693-.005 1.036-.012.754-.01 1.506-.076 2.25-.2.747-.128 1.47-.367 2.147-.709.673-.342 1.288-.79 1.82-1.326.535-.532.984-1.145 1.329-1.816.34-.675.574-1.397.696-2.142.126-.745.195-1.498.209-2.252.004-.35.004-.688.004-1.038.01-.408.01-.815.01-1.23V10.728c0-.412 0-.82-.01-1.228 0-.345 0-.691-.004-1.036-.014-.755-.083-1.508-.209-2.252-.122-.745-.357-1.467-.696-2.142-.695-1.353-1.796-2.454-3.149-3.15-.677-.34-1.4-.578-2.147-.705-.744-.124-1.496-.19-2.25-.199-.343-.005-.694-.012-1.037-.014-.404-.002-.815-.002-1.22-.002z"/>
        <path fill="#000" d="M9.5 44.016c-.342 0-.677-.005-1.017-.012-.704-.01-1.407-.07-2.103-.184-.648-.112-1.276-.32-1.864-.616-.581-.295-1.112-.68-1.571-1.144-.466-.458-.854-.988-1.148-1.571-.298-.587-.504-1.215-.611-1.864-.116-.698-.178-1.403-.187-2.11-.008-.237-.017-1.027-.017-1.027V9.5s.01-.778.017-1.006c.008-.706.07-1.41.186-2.107.107-.65.313-1.28.611-1.87.294-.582.68-1.113 1.142-1.572.463-.464.995-.852 1.578-1.15.586-.296 1.213-.503 1.86-.612.698-.114 1.403-.176 2.11-.185L9.5.984h115.615l1.027.015c.7.008 1.4.07 2.09.183.654.11 1.288.318 1.88.616 1.168.602 2.118 1.554 2.717 2.722.293.585.496 1.21.602 1.855.117.702.182 1.412.196 2.123.003.32.003.661.003 1.002.009.422.009.823.009 1.228v23.545c0 .409 0 .807-.009 1.21 0 .365 0 .7-.004 1.045-.013.7-.078 1.396-.193 2.086-.105.653-.31 1.287-.607 1.878-.297.577-.682 1.103-1.143 1.56-.46.465-.99.853-1.574 1.15-.59.299-1.223.507-1.876.618-.696.114-1.399.175-2.103.184-.33.007-.675.012-1.01.012l-1.22.002-114.4-.002z"/>
        <g fill="#FFF">
            <path d="M17.74 13.838c.025-1.908 1.025-3.671 2.651-4.67-1.03-1.472-2.694-2.372-4.49-2.428-1.89-.198-3.72 1.13-4.683 1.13-.982 0-2.464-1.11-4.06-1.078-2.1.068-4.01 1.233-5.032 3.07-2.176 3.766-.553 9.302 1.532 12.347C4.7 23.7 5.919 25.366 7.514 25.307c1.56-.065 2.143-.995 4.026-.995 1.867 0 2.413.995 4.04.957 1.675-.027 2.73-1.497 3.736-3.003.75-1.062 1.326-2.236 1.708-3.479-1.989-.84-3.282-2.79-3.284-4.949zM14.667 4.737C15.58 3.641 16.03 2.233 15.92.81c-1.395.147-2.683.813-3.609 1.867-.913 1.04-1.376 2.4-1.286 3.782 1.413.014 2.755-.62 3.64-1.722z" transform="translate(10.125 9)"/>
            <g>
                <path d="M9.34 11.407H4.015l-1.279 3.776H.481l5.044-13.97h2.343l5.044 13.97h-2.294L9.34 11.407zM4.566 9.665h4.221l-2.08-6.129h-.059L4.566 9.665zM23.805 10.09c0 3.166-1.694 5.2-4.251 5.2-1.321.069-2.566-.623-3.205-1.782h-.048v5.045h-2.09V4.998h2.023v1.694h.038c.667-1.152 1.913-1.844 3.244-1.8 2.585 0 4.289 2.043 4.289 5.199zm-2.15 0c0-2.061-1.065-3.417-2.69-3.417-1.598 0-2.673 1.384-2.673 3.418 0 2.052 1.075 3.427 2.672 3.427 1.626 0 2.692-1.346 2.692-3.427zM35.015 10.09c0 3.166-1.694 5.2-4.25 5.2-1.322.069-2.567-.623-3.205-1.782h-.049v5.045h-2.09V4.998h2.023v1.694h.039c.667-1.152 1.913-1.844 3.243-1.8 2.585 0 4.29 2.043 4.29 5.199zm-2.149 0c0-2.061-1.066-3.417-2.691-3.417-1.598 0-2.672 1.384-2.672 3.418 0 2.052 1.074 3.427 2.672 3.427 1.625 0 2.691-1.346 2.691-3.427zM42.424 11.29c.155 1.386 1.501 2.296 3.34 2.296 1.762 0 3.03-.91 3.03-2.16 0-1.084-.764-1.733-2.575-2.178l-1.81-.436c-2.566-.62-3.757-1.82-3.757-3.766 0-2.41 2.1-4.066 5.084-4.066 2.952 0 4.975 1.656 5.043 4.066h-2.11c-.126-1.394-1.279-2.236-2.963-2.236-1.684 0-2.837.852-2.837 2.091 0 .988.736 1.569 2.537 2.014l1.54.378c2.865.677 4.056 1.829 4.056 3.872 0 2.614-2.082 4.25-5.393 4.25-3.098 0-5.19-1.598-5.325-4.124h2.14zM55.514 2.587v2.41h1.937v1.656h-1.937v5.615c0 .873.388 1.28 1.24 1.28.23-.005.46-.02.687-.05v1.647c-.382.071-.771.104-1.16.096-2.063 0-2.867-.774-2.867-2.75V6.653h-1.481V4.998h1.48v-2.41h2.101zM58.573 10.09c0-3.204 1.888-5.218 4.83-5.218 2.954 0 4.833 2.014 4.833 5.219 0 3.213-1.87 5.218-4.832 5.218-2.962 0-4.83-2.005-4.83-5.218zm7.532 0c0-2.197-1.007-3.495-2.701-3.495-1.694 0-2.7 1.307-2.7 3.496 0 2.207 1.006 3.495 2.7 3.495 1.694 0 2.701-1.288 2.701-3.495zM69.96 4.998h1.993V6.73h.049c.278-1.116 1.3-1.884 2.45-1.84.24 0 .48.025.716.078v1.956c-.304-.093-.621-.136-.94-.127-.614-.025-1.209.22-1.628.67-.419.451-.62 1.063-.55 1.674v6.041h-2.09V4.998zM84.807 12.192c-.28 1.849-2.082 3.117-4.385 3.117-2.963 0-4.803-1.985-4.803-5.17 0-3.195 1.85-5.267 4.715-5.267 2.818 0 4.59 1.936 4.59 5.024v.717H77.73v.126c-.067.758.195 1.509.719 2.061s1.26.852 2.02.824c1.016.095 1.972-.487 2.353-1.432h1.985zm-7.067-3.04h5.092c.038-.682-.21-1.348-.684-1.839-.475-.49-1.132-.761-1.814-.746-.688-.005-1.349.266-1.836.752-.487.485-.76 1.145-.758 1.833z" transform="translate(10.125 9) translate(28.125 10.125)"/>
            </g>
        </g>
        <g fill="#FFF">
            <path d="M.481 4.18C.481 2.005 1.64.66 3.505.66c1.394-.07 2.608.942 2.791 2.326H5.258c-.18-.817-.918-1.387-1.753-1.355-1.206 0-1.96.982-1.96 2.55 0 1.563.754 2.544 1.964 2.544.804.06 1.538-.458 1.75-1.237h1.037c-.21 1.351-1.424 2.313-2.787 2.21C1.644 7.698.481 6.353.481 4.18zM7.437 5c-.087-.908.348-1.787 1.123-2.268.775-.48 1.756-.48 2.531 0 .775.481 1.21 1.36 1.124 2.268.088.909-.347 1.79-1.123 2.271-.775.482-1.757.482-2.533 0S7.349 5.91 7.437 5zm3.75 0c0-1.098-.494-1.74-1.36-1.74-.869 0-1.358.642-1.358 1.74 0 1.107.49 1.744 1.358 1.744.866 0 1.36-.642 1.36-1.744zM13.556 2.47h.962v.804h.075c.26-.593.867-.955 1.512-.903.5-.037.988.154 1.33.52.34.367.497.87.423 1.365v3.279h-1V4.507c0-.814-.353-1.22-1.093-1.22-.338-.015-.667.118-.9.365-.232.246-.345.582-.31.92v2.963h-.999V2.469zM21.256 2.371c1.14 0 1.885.53 1.982 1.424h-.959c-.092-.372-.456-.61-1.023-.61-.558 0-.982.265-.982.66 0 .303.256.494.806.62l.841.195c.964.223 1.415.638 1.415 1.382 0 .954-.889 1.59-2.098 1.59-1.206 0-1.991-.544-2.08-1.441h1c.178.44.634.7 1.103.632.623 0 1.065-.279 1.065-.684 0-.302-.237-.498-.744-.618l-.884-.205c-.963-.228-1.41-.66-1.41-1.414 0-.898.824-1.53 1.968-1.53zM24.598 1.622l1.168-1.6h1.173l-1.308 1.6h-1.033zm.104.847h.995v5.066h-.995V2.469zM27.254 8.042h1.023c.084.367.507.605 1.182.605.833 0 1.326-.396 1.326-1.065v-.973h-.075c-.32.555-.924.884-1.563.851-1.293 0-2.093-1-2.093-2.516 0-1.545.808-2.559 2.103-2.559.655-.023 1.269.322 1.59.893h.08V2.47h.958v5.108c0 1.158-.908 1.893-2.34 1.893-1.266 0-2.085-.567-2.191-1.428zm3.55-3.103c0-1.01-.522-1.656-1.374-1.656-.86 0-1.343.647-1.343 1.656 0 1.01.483 1.656 1.343 1.656.857 0 1.373-.641 1.373-1.656zM37.649 7.535h-.964V6.73h-.08c-.262.6-.878.963-1.53.903-.496.035-.981-.156-1.32-.52-.34-.365-.495-.863-.425-1.355V2.469h1.002v3.029c0 .818.33 1.21 1.064 1.21.345.032.687-.093.93-.34.243-.248.36-.591.322-.936V2.47h1v5.066zM43.525 6.167c-.28.956-1.205 1.573-2.195 1.466-.675.018-1.325-.262-1.775-.766-.45-.503-.657-1.18-.565-1.849-.09-.671.116-1.348.564-1.856.448-.508 1.094-.796 1.772-.79 1.41 0 2.26.962 2.26 2.553v.349h-3.578v.056c-.031.376.097.748.354 1.024s.618.431.995.427c.49.059.966-.184 1.206-.614h.962zm-3.517-1.632h2.56c.025-.344-.096-.683-.334-.933-.237-.25-.57-.388-.914-.38-.35-.004-.685.133-.932.38s-.384.583-.38.933zM44.974.492L45.974.492 45.974 7.535 44.974 7.535zM47.364 5c-.087-.908.348-1.787 1.123-2.268.775-.48 1.756-.48 2.531 0 .775.481 1.21 1.36 1.124 2.268.088.909-.347 1.79-1.123 2.271-.775.482-1.757.482-2.533 0S47.276 5.91 47.364 5zm3.75 0c0-1.098-.494-1.74-1.36-1.74-.869 0-1.358.642-1.358 1.74 0 1.107.49 1.744 1.358 1.744.866 0 1.36-.642 1.36-1.744zM60.515 6.167c-.28.956-1.205 1.573-2.195 1.466-.675.018-1.324-.262-1.775-.766-.45-.503-.657-1.18-.565-1.849-.09-.671.116-1.348.564-1.856.448-.508 1.095-.796 1.772-.79 1.41 0 2.26.962 2.26 2.553v.349h-3.577v.056c-.032.376.096.748.353 1.024s.619.431.996.427c.489.059.965-.184 1.205-.614h.962zM57 4.535h2.558c.026-.344-.095-.683-.332-.933-.238-.25-.57-.388-.914-.38-.35-.004-.686.133-.933.38s-.384.583-.38.933zM61.918 2.47h.963v.804h.075c.26-.593.866-.955 1.511-.903.5-.037.989.154 1.33.52.341.367.497.87.424 1.365v3.279h-1V4.507c0-.814-.354-1.22-1.093-1.22-.339-.015-.668.118-.9.365-.233.246-.346.582-.31.92v2.963h-1V2.469zM74.799 6.167c-.28.956-1.205 1.573-2.195 1.466-.676.018-1.325-.262-1.776-.766-.45-.503-.657-1.18-.564-1.849-.09-.671.115-1.348.564-1.856.448-.508 1.094-.796 1.771-.79 1.41 0 2.26.962 2.26 2.553v.349h-3.577v.056c-.032.376.097.748.354 1.024.256.276.618.431.995.427.49.059.965-.184 1.205-.614h.963zm-3.517-1.632h2.559c.025-.344-.096-.683-.333-.933-.238-.25-.57-.388-.914-.38-.35-.004-.686.133-.933.38s-.383.583-.379.933zM76.248.492L77.248.492 77.248 7.535 76.248 7.535z" transform="translate(39.375 9)"/>
        </g>
    </g>
</svg>
