<svg width="72" height="30" viewBox="0 0 72 30" fill="none" xmlns="http://www.w3.org/2000/svg">
<path d="M14.3671 15.4153L29.858 29L35.3122 28.5509L25.4767 15.7184L36.4299 14.4049L41.9176 19.502H48.3107L45.4047 10.5203L51.2725 1.0896H46.1424L37.5363 9.24043L8.62226 7.26447C8.62226 7.26447 4.15159 6.77048 2.2292 9.50988C1.65379 10.3639 1.26813 11.3323 1.09842 12.3494C0.928707 13.3664 0.978922 14.4083 1.24565 15.4041L14.3671 15.4153Z" stroke="#FCED2B" stroke-width="1.5" stroke-miterlimit="10" stroke-linecap="round"/>
<path d="M20.9932 7.66886C20.9932 7.66886 23.1749 6.40021 25.7931 4.91824C28.4112 3.43627 32.1259 1 33.144 1C34.1622 1 38.3915 1.6624 38.3915 1.6624L33.6363 5.80517" stroke="#FCED2B" stroke-width="1.5" stroke-miterlimit="10" stroke-linecap="round"/>
<path d="M57.2427 6.10791H67.9065" stroke="#FCED2B" stroke-width="1.5" stroke-miterlimit="10" stroke-linecap="round"/>
<path d="M54.2422 12.3843H70.9997" stroke="#FCED2B" stroke-width="1.5" stroke-miterlimit="10" stroke-linecap="round"/>
<path d="M55.812 19.8835H64.9525" stroke="#FCED2B" stroke-width="1.5" stroke-miterlimit="10" stroke-linecap="round"/>
<path d="M41.1558 28.5291H60.9601" stroke="#FCED2B" stroke-width="1.5" stroke-miterlimit="10" stroke-linecap="round"/>
</svg>
