<svg width="64" height="56" viewBox="0 0 64 56" fill="none" xmlns="http://www.w3.org/2000/svg">
<g clip-path="url(#clip0_518_946)">
<path d="M35.9 50.69L12 36.57L27.24 10.79L37.84 5.92001L50.29 13.27L51.05 25.05L35.9 50.69Z" stroke="black" stroke-width="2" stroke-linecap="round" stroke-linejoin="round"/>
<path d="M36.58 34.11L26.2 27.97" stroke="black" stroke-width="2" stroke-linecap="round" stroke-linejoin="round"/>
<path d="M33.18 39.86L22.8 33.73" stroke="black" stroke-width="2" stroke-linecap="round" stroke-linejoin="round"/>
<path d="M39.7301 20.31C41.5913 20.31 43.1001 18.8012 43.1001 16.94C43.1001 15.0788 41.5913 13.57 39.7301 13.57C37.8689 13.57 36.3601 15.0788 36.3601 16.94C36.3601 18.8012 37.8689 20.31 39.7301 20.31Z" stroke="black" stroke-width="2" stroke-linecap="round" stroke-linejoin="round"/>
<path d="M47.37 4L41.79 13.44" stroke="black" stroke-width="2" stroke-linecap="round" stroke-linejoin="round"/>
<path d="M49.5301 27.85L46.2501 51.02L37.8601 48.34" stroke="black" stroke-width="2" stroke-linecap="round" stroke-linejoin="round"/>
</g>
<defs>
<clipPath id="clip0_518_946">
<rect width="41.06" height="49.02" fill="white" transform="translate(11 3)"/>
</clipPath>
</defs>
</svg>
