<svg xmlns="http://www.w3.org/2000/svg" width="90" height="90" viewBox="0 0 90 90">
  <defs>
    <style>
      .cls-1 {
        fill: #c6ad77;
      }

      .cls-2 {
        fill: #231f20;
      }

      .cls-2, .cls-5 {
        opacity: 0.2;
      }

      .cls-3 {
        fill: #95704d;
      }

      .cls-4 {
        fill: #fbefc4;
      }

      .cls-6 {
        fill: #e3ca88;
      }
    </style>
  </defs>
  <g id="Layer_1" data-name="Layer 1">
    <g>
      <path class="cls-1" d="M77.71,83.87h1.41c.63,0,.77-.88,1-1.91L87.9,43.07c.53-3.51-1.07-3.89-3.89-3.89H30.36c-3.82,0-4,3.21-4,3.21l-3.7,2.06Z"/>
      <polygon class="cls-2" points="82.29 39.18 79.12 83.87 67.36 83.1 59.64 39.18 82.29 39.18"/>
      <g>
        <rect class="cls-3" x="12.51" y="6.1" width="66.15" height="66.15" rx="6.25"/>
        <g>
          <rect class="cls-4" x="45.58" y="9.78" width="14.7" height="14.7"/>
          <rect class="cls-4" x="60.28" y="24.48" width="14.7" height="14.7"/>
          <path class="cls-4" d="M16.18,24.48h14.7V9.78H19.71a3.53,3.53,0,0,0-3.53,3.53Z"/>
          <rect class="cls-4" x="30.88" y="24.48" width="14.7" height="14.7"/>
          <rect class="cls-4" x="16.18" y="39.17" width="14.7" height="14.7"/>
          <rect class="cls-4" x="30.88" y="53.87" width="14.7" height="14.7"/>
          <rect class="cls-4" x="45.58" y="39.17" width="14.7" height="14.7"/>
          <path class="cls-4" d="M60.28,68.58H70.56A4.42,4.42,0,0,0,75,64.16V53.87H60.28Z"/>
        </g>
      </g>
      <g class="cls-5">
        <path d="M16.13,69.36c3.39,0,53.75,2.58,57.47,2.58s5-3.77,5-3.77l-.73-4.67L74.82,44c-.47-2.39-3.15-2.76-5.78-2.71H39.77c-4.68,0-3.68-7.41-7.5-7.41H12.5V65.73S12.73,69.36,16.13,69.36Z"/>
      </g>
      <path class="cls-6" d="M79.12,83.87H16.33c-2.75.07-4.27-.63-5-3.37L2,40.06A3.53,3.53,0,0,1,5.66,36.7h23c3.82,0,2.82,7.16,7.5,7.16H65.41c2.64,0,5.31.33,5.79,2.71l6.43,36.08C78,84.08,79.12,83.87,79.12,83.87Z"/>
    </g>
  </g>
</svg>
