<svg xmlns="http://www.w3.org/2000/svg" width="90" height="90" viewBox="0 0 90 90">
  <defs>
    <style>
      .cls-1 {
        fill: #6c9d41;
      }

      .cls-2 {
        fill: #95bb4a;
      }

      .cls-3 {
        fill: none;
      }

      .cls-4 {
        fill: #e9eacf;
      }

      .cls-5 {
        fill: #c5d3a0;
      }
    </style>
  </defs>
  <g id="Layer_1" data-name="Layer 1">
    <g>
      <path class="cls-1" d="M78.44,18.11,51.56,5.28A15.74,15.74,0,0,0,45,4a15.74,15.74,0,0,0-6.56,1.29L11.56,18.11A12.6,12.6,0,0,0,5,28.51V59.42a13.84,13.84,0,0,0,6.32,10.86L38.68,85.82A13.08,13.08,0,0,0,45,87.31a13.08,13.08,0,0,0,6.32-1.49L78.68,70.28A13.84,13.84,0,0,0,85,59.42V28.51A12.6,12.6,0,0,0,78.44,18.11Z"/>
      <path class="cls-2" d="M79.76,27.19,52,42.5A9.7,9.7,0,0,0,47,51V83.21a1.87,1.87,0,0,1-1.64,1.88,1.81,1.81,0,0,1-2-1.81V51.1a9.69,9.69,0,0,0-5-8.47L10.24,26.92a1.81,1.81,0,0,1-.71-2.47A1.83,1.83,0,0,1,12,23.74L40.3,39.56a9.74,9.74,0,0,0,9.42,0L78,24a1.82,1.82,0,1,1,1.76,3.18Z"/>
      <g>
        <polygon class="cls-3" points="42.8 84.12 5.22 63.45 5.22 25.46 42.8 46.13 42.8 84.12"/>
        <path class="cls-4" d="M15.87,64.82,34.66,75.15a10.72,10.72,0,0,0-2.54-6.78c-4.37-5.18-4.44-8.19-4.54-9.24l0-1.18,2.66,1.46a2.68,2.68,0,0,0,.46-1.64l-3.09-3.63.23,0a2.41,2.41,0,0,0,2-2.7c0-2.52-2-5.69-4.53-7.07s-4.52-.44-4.52,2.09a8.3,8.3,0,0,0,2,4.88l.23.29-3.1.21A5.74,5.74,0,0,0,20.32,54h0L23,55.43l0,1.15c-.1.94-.16,3.87-4.55,4.24C16.79,61,15.87,62.41,15.87,64.82Z"/>
        <path class="cls-5" d="M17.13,64.82c0-2.41.92-3.86,2.53-4,4.39-.37,4.45-3.3,4.55-4.24l0-1.15L21.58,54h0a5.91,5.91,0,0,1-.46-2.16l3.1-.21L24,51.31a8.3,8.3,0,0,1-2-4.88,2.43,2.43,0,0,1,1.77-2.65c-1.76-.34-3,.66-3,2.65a8.3,8.3,0,0,0,2,4.88l.23.29-3.1.21A5.74,5.74,0,0,0,20.32,54h0L23,55.43l0,1.15c-.1.94-.16,3.87-4.55,4.24-1.61.14-2.53,1.59-2.53,4L34.66,75.15c0-.23,0-.47,0-.71Z"/>
      </g>
      <g>
        <polygon class="cls-3" points="79.25 20.58 44.3 38.15 9.56 20.27 44.51 2.69 79.25 20.58"/>
        <g>
          <path class="cls-4" d="M37,23c2.44,1.75,6.11,4.61,6.91,5.14l14-7c-1-.41-6.61-2.31-10-3.57Z"/>
          <path class="cls-4" d="M36,22.21,46.29,17c1.1-1.06.53-1.89-.46-2.57l-3.91-2.33a11.05,11.05,0,0,0-3.29,1l2.16,1.81-2.26,1.14-3.72-1.5a19.27,19.27,0,0,0-1.92.8,16,16,0,0,0-1.59,1l2.91,1.92L32,19.39l-3.54-1.12a4.6,4.6,0,0,0-2,1.66L31,22A7.87,7.87,0,0,0,36,22.21Z"/>
          <path class="cls-4" d="M57.46,22.69,47,28c-5.24,2.63-1.09,4.74-1.09,4.74l1.74.9L68.54,23.09l-1.73-.9A10.78,10.78,0,0,0,57.46,22.69Z"/>
        </g>
      </g>
      <g>
        <polygon class="cls-3" points="83.6 64.03 49.21 82.66 49.21 45.92 83.6 27.3 83.6 64.03"/>
        <g>
          <path class="cls-4" d="M58.79,60.84c.86-1.36.91-2.76,2.75-3.77,1.42-.77,2.68-2.84,3.39-4l.7-1.25a2.14,2.14,0,0,1,.69,2.34,6.25,6.25,0,0,1-.47,1.31A16.93,16.93,0,0,1,64.31,58c-1.35,1.9-3.72,4.52-4,7.43l13-7c.23-1.31,1.52-5.33,1.52-7.51,0-8.2-5.19-9-9.82-6.82l-2.37-1.24A2,2,0,0,0,61.87,44l-.27,1.52a9.3,9.3,0,0,1-1.43,2.59,6.4,6.4,0,0,0-1,2.18,25.41,25.41,0,0,1-1.55,4.63L55.44,59.3c-.55,1-.48,2,.11,2.2A5.24,5.24,0,0,0,58.79,60.84Z"/>
          <path class="cls-4" d="M71.59,60.66l-10.35,5.6c-5.15,2.8-5.13,7.15-5.13,7.15v1.83L76.72,64.08V62.24S76.75,57.87,71.59,60.66Z"/>
        </g>
        <g>
          <path class="cls-5" d="M64.84,51.32l-.7,1.25c-.71,1.17-2,3.24-3.39,4-1.84,1-1.88,2.41-2.75,3.77a5.51,5.51,0,0,1-2.85.72.71.71,0,0,0,.4.43,5.24,5.24,0,0,0,3.24-.66c.86-1.36.91-2.76,2.75-3.77,1.42-.77,2.68-2.84,3.39-4l.53-.94A2,2,0,0,0,64.84,51.32Z"/>
          <path class="cls-5" d="M74,50.35c0,2.17-1.29,6.2-1.52,7.51l-12,6.51a5.78,5.78,0,0,0-.18,1l13-7c.23-1.31,1.52-5.33,1.52-7.51,0-4.14-1.32-6.39-3.23-7.32C73.07,44.66,74,46.81,74,50.35Z"/>
          <path class="cls-5" d="M75.23,59.84a3,3,0,0,1,.7,1.91v1.84L56.11,74.32v.92L76.72,64.08V62.24S76.73,60.32,75.23,59.84Z"/>
        </g>
      </g>
      <g>
        <path class="cls-5" d="M56.92,21.64l1-.5c-1-.41-6.61-2.31-10-3.57L37,23l.54.39,10.09-5.08C50.55,19.42,55,21,56.92,21.64Z"/>
        <path class="cls-5" d="M34.57,15.35l3.73,1.51,3-1.44-.48-.48-2.26,1.14-3.72-1.5a19.27,19.27,0,0,0-1.92.8,16,16,0,0,0-1.59,1l.47.32c.27-.16.58-.34.89-.5C33.47,15.75,34.57,15.35,34.57,15.35Z"/>
        <path class="cls-5" d="M45.59,15.25a2,2,0,0,1,1.06,1.36c.57-.86,0-1.56-.82-2.14l-3.91-2.33a11.05,11.05,0,0,0-3.29,1l.53.44a12,12,0,0,1,2.52-.65Z"/>
        <path class="cls-5" d="M28.17,19.05l3.54,1.12,2.94-1.46-.44-.45L32,19.39l-3.54-1.12a4.6,4.6,0,0,0-2,1.66l.28.13A5.59,5.59,0,0,1,28.17,19.05Z"/>
        <path class="cls-5" d="M46.72,28.75l10.51-5.28a10.71,10.71,0,0,1,9.34-.5l1.09.56.88-.44-1.73-.9a10.78,10.78,0,0,0-9.35.5L47,28c-2,1-2.62,1.92-2.65,2.69A5.59,5.59,0,0,1,46.72,28.75Z"/>
      </g>
    </g>
  </g>
</svg>
