<svg xmlns="http://www.w3.org/2000/svg" width="90" height="90" viewBox="0 0 90 90">
  <defs>
    <style>
      .cls-1 {
        fill: #547987;
      }

      .cls-2 {
        fill: #bdbcb8;
      }

      .cls-3 {
        fill: #dad7d5;
      }

      .cls-4 {
        fill: #7dacc9;
      }

      .cls-5 {
        fill: #e7e6e4;
      }

      .cls-6 {
        opacity: 0.1;
      }

      .cls-7 {
        fill: #fff;
      }
    </style>
  </defs>
  <g id="Layer_1" data-name="Layer 1">
    <g>
      <rect class="cls-1" x="36.77" y="47.37" width="16.46" height="11.92"/>
      <rect class="cls-2" x="14.37" y="6.74" width="61.26" height="42.16" rx="6.68"/>
      <rect class="cls-3" x="17.07" y="6.74" width="55.86" height="42.16" rx="6.35"/>
      <rect class="cls-4" x="21.1" y="11.39" width="48.6" height="32.32" rx="1.98"/>
      <path class="cls-2" d="M45,83.24A42,42,0,0,0,75.63,70V64.56A6.68,6.68,0,0,0,69,57.87H21.05a6.68,6.68,0,0,0-6.68,6.69V70A42,42,0,0,0,45,83.24Z"/>
      <path class="cls-3" d="M66.57,57.87H23.43a6.36,6.36,0,0,0-6.36,6.36v8.42a42.13,42.13,0,0,0,55.86,0V64.23A6.36,6.36,0,0,0,66.57,57.87Z"/>
      <path class="cls-5" d="M48.63,68.22a19,19,0,0,0,0-5.17,2.69,2.69,0,0,0-2.69-2.27H24.27a3.78,3.78,0,0,0-3.78,3.78v4.6a3.57,3.57,0,0,0,1.57,2.93,42,42,0,0,0,19.4,7,2.88,2.88,0,0,0,2.44-1A20.53,20.53,0,0,0,48.63,68.22Z"/>
      <path class="cls-1" d="M75.63,19h6.43A2.93,2.93,0,0,1,85,21.94V34.39a2.93,2.93,0,0,1-2.93,2.93H75.63a0,0,0,0,1,0,0V19A0,0,0,0,1,75.63,19Z"/>
      <path class="cls-1" d="M5,19h6.43a2.93,2.93,0,0,1,2.93,2.93V34.39a2.93,2.93,0,0,1-2.93,2.93H5a0,0,0,0,1,0,0V19a0,0,0,0,1,0,0Z" transform="translate(19.37 56.33) rotate(180)"/>
      <g class="cls-6">
        <path class="cls-7" d="M46,18.55a19.09,19.09,0,0,0,0-5.12,2.72,2.72,0,0,0-2.7-2.32h-19a3.78,3.78,0,0,0-3.78,3.78V32A2.61,2.61,0,0,0,22.8,34.6a42,42,0,0,0,8-.19A18.75,18.75,0,0,0,46,18.55Z"/>
      </g>
    </g>
  </g>
</svg>
