<?xml version="1.0" encoding="utf-8"?>
<svg  xmlns="http://www.w3.org/2000/svg" x="0px" y="0px" viewBox="0 0 32 32" class="shareicon" aria-hidden="true" role="presentation"  fill="white"><path d="M30.914 0.141c0.213 0.094 0.401 0.222 0.563 0.383c0.161 0.162 0.289 0.349 0.383 0.563 C31.953 1.3 32 1.526 32 1.766v28.469c0 0.24-0.047 0.466-0.141 0.68c-0.094 0.214-0.222 0.401-0.383 0.563 c-0.162 0.162-0.349 0.289-0.563 0.383C30.7 31.953 30.474 32 30.234 32h-8.156V19.609h4.156l0.625-4.828h-4.781v-3.078 c0-0.854 0.182-1.461 0.547-1.82c0.364-0.359 0.979-0.539 1.844-0.539h2.563V5.031c-0.615-0.083-1.234-0.138-1.859-0.164 c-0.625-0.026-1.25-0.039-1.875-0.039c-0.99 0-1.867 0.151-2.633 0.453c-0.766 0.302-1.414 0.732-1.945 1.289 c-0.531 0.558-0.935 1.229-1.211 2.016c-0.276 0.787-0.414 1.664-0.414 2.633v3.563h-4.172v4.828h4.172V32H1.766 c-0.24 0-0.466-0.047-0.68-0.141c-0.214-0.094-0.401-0.221-0.563-0.383c-0.162-0.161-0.289-0.349-0.383-0.563 C0.047 30.701 0 30.474 0 30.234V1.766C0 1.526 0.047 1.3 0.141 1.086c0.094-0.213 0.221-0.401 0.383-0.563 c0.161-0.161 0.349-0.289 0.563-0.383C1.299 0.047 1.526 0 1.766 0h28.469C30.474 0 30.7 0.047 30.914 0.141z"></path></svg>