<svg xmlns="http://www.w3.org/2000/svg" width="152" height="45" viewBox="0 0 152 45">
    <defs>
        <linearGradient id="prefix__a" x1="61.909%" x2="24.677%" y1="4.946%" y2="71.879%">
            <stop offset="0%" stop-color="#00A0FF"/>
            <stop offset="1%" stop-color="#00A1FF"/>
            <stop offset="26%" stop-color="#00BEFF"/>
            <stop offset="51%" stop-color="#00D2FF"/>
            <stop offset="76%" stop-color="#00DFFF"/>
            <stop offset="100%" stop-color="#00E3FF"/>
        </linearGradient>
        <linearGradient id="prefix__b" x1="107.685%" x2="-130.64%" y1="50%" y2="50%">
            <stop offset="0%" stop-color="#FFE000"/>
            <stop offset="41%" stop-color="#FFBD00"/>
            <stop offset="78%" stop-color="orange"/>
            <stop offset="100%" stop-color="#FF9C00"/>
        </linearGradient>
        <linearGradient id="prefix__c" x1="86.271%" x2="-50.18%" y1="32.556%" y2="128.53%">
            <stop offset="0%" stop-color="#FF3A44"/>
            <stop offset="100%" stop-color="#C31162"/>
        </linearGradient>
        <linearGradient id="prefix__d" x1="-18.825%" x2="42.086%" y1="-6.482%" y2="36.388%">
            <stop offset="0%" stop-color="#32A071"/>
            <stop offset="7%" stop-color="#2DA771"/>
            <stop offset="48%" stop-color="#15CF74"/>
            <stop offset="80%" stop-color="#06E775"/>
            <stop offset="100%" stop-color="#00F076"/>
        </linearGradient>
    </defs>
    <g fill="none">
        <rect width="152" height="45" fill="#000" rx="5"/>
        <path fill="#A6A6A6" d="M146.37.9c2.612 0 4.73 2.115 4.73 4.725v33.75c0 2.61-2.118 4.725-4.73 4.725H5.63C3.018 44.1.9 41.985.9 39.375V5.625C.9 3.015 3.019.9 5.63.9h140.74m0-.9H5.63C2.52 0 0 2.518 0 5.625v33.75C0 42.482 2.52 45 5.63 45h140.74c3.11 0 5.63-2.518 5.63-5.625V5.625C152 2.518 149.48 0 146.37 0z"/>
        <path fill="#FFF" d="M76.815 24.272c-2.659.007-4.81 2.149-4.803 4.785.006 2.637 2.167 4.769 4.826 4.763 2.658-.006 4.809-2.149 4.803-4.785.018-1.273-.485-2.498-1.395-3.396-.91-.898-2.148-1.391-3.431-1.367zm0 7.654c-1.194.083-2.318-.567-2.834-1.638-.516-1.07-.32-2.346.496-3.215.815-.87 2.083-1.156 3.198-.723 1.115.433 1.85 1.498 1.852 2.685.037.742-.23 1.468-.741 2.013-.51.544-1.221.86-1.971.878zm-10.533-7.654c-2.659.007-4.809 2.149-4.803 4.785.007 2.637 2.167 4.769 4.826 4.763 2.659-.006 4.81-2.149 4.803-4.785.018-1.273-.485-2.498-1.394-3.396-.91-.898-2.148-1.391-3.432-1.367zm0 7.654c-1.194.083-2.318-.567-2.834-1.638-.516-1.07-.32-2.346.496-3.215.815-.87 2.084-1.156 3.198-.723 1.115.433 1.85 1.498 1.853 2.685.036.742-.231 1.468-.742 2.013-.51.544-1.221.86-1.97.878zM53.761 25.74v2.017h4.882c-.077.95-.475 1.847-1.13 2.544-.99 1-2.362 1.538-3.775 1.48-2.996 0-5.425-2.409-5.425-5.38 0-2.97 2.43-5.378 5.425-5.378 1.38-.02 2.711.499 3.707 1.445l1.435-1.423c-1.36-1.334-3.206-2.07-5.12-2.04-2.735-.105-5.31 1.282-6.71 3.616-1.4 2.333-1.4 5.239 0 7.573 1.4 2.333 3.975 3.72 6.71 3.615 1.956.077 3.851-.677 5.21-2.073 1.187-1.293 1.82-2.993 1.763-4.74.004-.421-.03-.841-.101-1.256H53.76zm51.205 1.57c-.603-1.761-2.24-2.97-4.114-3.038-1.249-.002-2.444.508-3.3 1.41-.857.903-1.298 2.116-1.22 3.353-.02 2.1 1.357 3.964 3.384 4.578 2.026.613 4.218-.169 5.386-1.922l-1.639-1.12c-.497.82-1.396 1.32-2.362 1.31-1.002.041-1.927-.533-2.328-1.445l6.43-2.634-.237-.493zm-6.555 1.59c-.046-.703.195-1.395.67-1.92.473-.525 1.14-.838 1.85-.87.745-.045 1.444.357 1.775 1.02L98.41 28.9zm-5.22 4.617h2.113V19.51H93.19v14.007zm-3.459-8.18h-.079c-.639-.721-1.563-1.13-2.531-1.12-2.566.123-4.582 2.22-4.582 4.767s2.016 4.645 4.582 4.769c.97.019 1.898-.392 2.531-1.121h.08v.684c0 1.826-.984 2.801-2.566 2.801-1.081-.024-2.04-.692-2.43-1.692l-1.83.75c.692 1.726 2.387 2.85 4.26 2.825 2.475 0 4.52-1.446 4.52-4.965v-8.482h-1.955v.784zm-2.43 6.589c-1.536-.095-2.734-1.359-2.734-2.886 0-1.526 1.198-2.79 2.734-2.885.732.031 1.419.355 1.904.898.486.543.729 1.258.673 1.982.062.726-.178 1.446-.664 1.992-.487.546-1.178.871-1.913.899zm27.564-12.416h-5.063v14.007h2.113v-5.311h2.95c1.642.117 3.212-.686 4.068-2.08.857-1.393.857-3.144 0-4.537-.856-1.394-2.426-2.196-4.068-2.08zm0 6.723h-2.95V21.46h2.995c.864 0 1.663.457 2.095 1.199.432.742.432 1.656 0 2.398-.432.742-1.23 1.199-2.095 1.199l-.045-.023zm13.041-2.005c-1.573-.097-3.052.745-3.763 2.14l1.865.773c.385-.688 1.142-1.087 1.932-1.02.542-.062 1.087.093 1.512.433.425.339.695.833.749 1.372v.134c-.68-.354-1.436-.539-2.204-.538-2.012 0-4.069 1.12-4.069 3.16.04.876.437 1.698 1.1 2.279.662.58 1.534.87 2.415.803 1.08.059 2.108-.464 2.69-1.367h.068v1.12h2.034v-5.39c0-2.454-1.876-3.877-4.283-3.877l-.046-.022zm-.26 7.676c-.689 0-1.65-.348-1.65-1.188 0-1.12 1.198-1.502 2.26-1.502.672-.016 1.336.146 1.922.47-.147 1.26-1.209 2.217-2.486 2.242l-.045-.022zm12.002-7.351l-2.418 6.073h-.068l-2.509-6.073h-2.26l3.763 8.494-2.147 4.717h2.204L142 24.553h-2.35zm-18.986 8.964h2.102V19.51h-2.102v14.007z"/>
        <path fill="url(#prefix__a)" d="M11.55 9.078c-.382.435-.577.995-.545 1.564v24.705c-.04.57.156 1.132.545 1.564l.081.089L26 23.162v-.335L11.631 9l-.081.078z"/>
        <path fill="url(#prefix__b)" d="M30.443 28L26 23.175v-.35L30.443 18l.098.07 5.321 3.248c1.517.923 1.517 2.441 0 3.376l-5.3 3.248-.119.058z"/>
        <path fill="url(#prefix__c)" d="M31 27.59L26.193 23 12 36.554c.664.565 1.655.597 2.358.076L31 27.59"/>
        <path fill="url(#prefix__d)" d="M31 17.409l-16.642-9.03c-.698-.529-1.693-.501-2.358.065L26.193 22 31 17.409z"/>
        <path fill="#000" d="M30.863 27l-16.505 9.445c-.674.511-1.604.511-2.278 0l-.08.08.08.091c.674.512 1.604.512 2.278 0L31 27.103 30.863 27z" opacity=".2"/>
        <path fill="#000" d="M11.673 36.82c-.321-.512-.479-1.163-.44-1.82v.194c-.034.658.135 1.307.47 1.806l.07-.09-.1-.09zM35.776 23.54L30 26.893l.104.107 5.672-3.294c.682-.296 1.151-.95 1.224-1.706-.146.684-.6 1.255-1.224 1.54z" opacity=".12"/>
        <path fill="#FFF" d="M13.86 8.523l21.946 12.062c.608.261 1.051.787 1.194 1.415-.07-.694-.529-1.296-1.194-1.568L13.86 8.37C12.295 7.5 11 8.218 11 9.96v.163c.034-1.742 1.295-2.46 2.86-1.6z" opacity=".25"/>
        <path fill="#FFF" stroke="#FFF" stroke-width=".2" d="M47 14.996V8.004h1.885c.839-.044 1.657.306 2.263.967.57.679.877 1.59.85 2.529.027.939-.28 1.85-.85 2.53-.606.66-1.424 1.01-2.263.966H47zm.789-.862h1.096c.618.036 1.223-.212 1.68-.688.436-.522.662-1.227.624-1.946.053-.713-.172-1.417-.616-1.925-.444-.507-1.061-.766-1.688-.709h-1.096v5.268zM53.12 15L53.12 8 53.88 8 53.88 15zM57.58 15c-.565-.007-1.114-.17-1.573-.47-.508-.316-.868-.794-1.007-1.34l.872-.325c.096.365.315.694.627.94.297.242.681.377 1.08.38.38.007.75-.099 1.057-.303.28-.182.44-.48.43-.793.02-.337-.14-.662-.43-.872-.427-.256-.895-.448-1.388-.57-.552-.132-1.061-.381-1.486-.727-.332-.292-.515-.697-.504-1.117 0-.484.229-.943.626-1.263.44-.355 1.01-.546 1.597-.537.547-.027 1.087.123 1.523.425.354.23.62.554.762.928l-.86.324c-.078-.234-.237-.438-.454-.581-.268-.195-.604-.294-.946-.28-.337-.005-.666.094-.934.28-.242.161-.384.42-.38.692.002.249.135.481.356.626.314.212.668.371 1.044.47.309.084.613.185.909.302.26.109.508.244.737.402.245.155.44.367.565.615.138.269.205.563.196.86.006.303-.07.602-.22.872-.136.245-.34.453-.59.604-.24.153-.506.27-.787.346-.267.073-.544.11-.823.112h0zM61.794 15H61V8h2.061c.505-.01.993.204 1.361.595.368.383.578.922.578 1.488 0 .565-.21 1.105-.578 1.487-.368.391-.856.605-1.36.595h-1.268V15zm0-3.698h1.33c.303.016.597-.121.803-.373.4-.474.4-1.219 0-1.692-.206-.253-.5-.39-.804-.373h-1.33v2.438zM72.008 13.981c-.65.671-1.557 1.04-2.498 1.018-.942.027-1.85-.343-2.498-1.018-1.35-1.387-1.35-3.575 0-4.963C67.672 8.366 68.57 8 69.504 8s1.832.366 2.493 1.018c1.337 1.392 1.337 3.571 0 4.963h.01zm-4.349-.559c.487.487 1.152.761 1.845.761.694 0 1.359-.274 1.845-.76 1.016-1.087 1.016-2.76 0-3.846-.486-.487-1.151-.76-1.845-.76-.693 0-1.358.273-1.845.76-1.015 1.087-1.015 2.759 0 3.845h0zM74 15L74 8 75.015 8 78.168 13.448 78.168 13.448 78.168 12.095 78.168 8 79 8 79 15 78.125 15 74.886 9.295 74.886 9.295 74.886 10.637 74.886 15zM81.115 15L81.115 8 81.885 8 81.885 15zM83 15V8h2.646c.548-.004 1.079.187 1.488.537.405.346.632.845.622 1.365.008.315-.086.624-.269.886-.18.25-.429.449-.72.572h0c.355.112.665.324.891.607.23.283.35.633.342.991.012.545-.23 1.067-.659 1.424-.422.379-.982.584-1.56.571L83 15zm.939-4.002h1.707c.323.015.636-.11.854-.338.216-.19.342-.458.35-.74.006-.28-.107-.553-.314-.753-.207-.22-.507-.34-.817-.327h-1.78v2.158zm0 3.139h1.89c.334.01.656-.122.878-.362.21-.215.328-.499.33-.793-.008-.293-.13-.572-.342-.782-.238-.239-.57-.37-.915-.362H83.94v2.299zM89 15L89 8 89.905 8 89.905 14.137 93 14.137 93 15zM98 8.863L94.88 8.863 94.88 11.08 97.703 11.08 97.703 11.92 94.88 11.92 94.88 14.137 98 14.137 98 15 94 15 94 8 98 8zM106 8.863L102.877 8.863 102.877 11.08 105.692 11.08 105.692 11.92 102.877 11.92 102.877 14.137 106 14.137 106 15 102 15 102 8 106 8zM107 15L107 8 108.066 8 111.179 13.448 111.179 13.448 111.179 12.095 111.179 8 112 8 112 15 111.136 15 107.938 9.295 107.938 9.295 107.938 10.637 107.938 15z"/>
    </g>
</svg>
