<svg width="40" height="40" viewBox="0 0 40 40" fill="none" xmlns="http://www.w3.org/2000/svg">
<g clip-path="url(#clip0_518_888)">
<path d="M30.46 23.15L38.95 14.28L30.42 5.87C30.42 5.87 27.05 9.54999 26.08 10.02C25.11 10.49 22.29 9.59 19.93 11.92C18.93 12.92 17.16 14.56 16.42 15.32C15.9743 15.7695 15.7241 16.3769 15.7241 17.01C15.7241 17.6431 15.9743 18.2505 16.42 18.7V18.7C16.6444 18.9286 16.912 19.1102 17.2074 19.2341C17.5027 19.358 17.8198 19.4219 18.14 19.4219C18.4603 19.4219 18.7774 19.358 19.0727 19.2341C19.368 19.1102 19.6357 18.9286 19.86 18.7L24.16 14.38" stroke="black" stroke-width="1.75" stroke-linecap="round" stroke-linejoin="round"/>
<path d="M8.42 22.96L1.87 16.37L11.52 6.80002L15.32 10.95C16.0588 10.892 16.8017 10.9815 17.5056 11.2133C18.2094 11.4451 18.8602 11.8145 19.42 12.3" stroke="black" stroke-width="1.75" stroke-linecap="round" stroke-linejoin="round"/>
<path d="M5.82996 20.32L15.32 10.95" stroke="black" stroke-width="1.75" stroke-linecap="round" stroke-linejoin="round"/>
<path d="M12.5714 22.2987L12.4547 22.1892C11.6086 21.396 10.2796 21.439 9.48639 22.2851L6.6892 25.269C5.896 26.1152 5.93894 27.4441 6.78508 28.2373L6.90181 28.3468C7.74796 29.1399 9.07691 29.097 9.87011 28.2509L12.6673 25.267C13.4605 24.4208 13.4176 23.0919 12.5714 22.2987Z" stroke="black" stroke-width="1.75" stroke-linecap="round" stroke-linejoin="round"/>
<path d="M15.7461 25.3168L15.6294 25.2074C14.7832 24.4142 13.4543 24.4571 12.6611 25.3032L9.86388 28.2872C9.07068 29.1333 9.11362 30.4623 9.95977 31.2555L10.0765 31.3649C10.9226 32.1581 12.2516 32.1152 13.0448 31.269L15.842 28.2851C16.6352 27.4389 16.5923 26.11 15.7461 25.3168Z" stroke="black" stroke-width="1.75" stroke-linecap="round" stroke-linejoin="round"/>
<path d="M18.9777 28.4958L18.8609 28.3864C18.0148 27.5932 16.6858 27.6361 15.8926 28.4823L13.0954 31.4662C12.3022 32.3124 12.3452 33.6413 13.1913 34.4345L13.308 34.5439C14.1542 35.3371 15.4832 35.2942 16.2764 34.4481L19.0735 31.4641C19.8667 30.618 19.8238 29.289 18.9777 28.4958Z" stroke="black" stroke-width="1.75" stroke-linecap="round" stroke-linejoin="round"/>
<path d="M23.26 15.98L31.53 24.26C31.7321 24.4541 31.8928 24.687 32.0026 24.9448C32.1124 25.2026 32.1691 25.4798 32.1691 25.76C32.1691 26.0402 32.1124 26.3175 32.0026 26.5752C31.8928 26.833 31.7321 27.0659 31.53 27.26V27.26C31.1511 27.636 30.6426 27.8527 30.1089 27.8658C29.5753 27.8788 29.0568 27.6871 28.66 27.33L24.78 23.81" stroke="black" stroke-width="1.75" stroke-linecap="round" stroke-linejoin="round"/>
<path d="M17.39 34.23L19.59 36.03C19.7973 36.2176 20.0397 36.3622 20.3033 36.4554C20.567 36.5485 20.8464 36.5883 21.1256 36.5725C21.4047 36.5567 21.6779 36.4855 21.9293 36.3632C22.1807 36.2409 22.4053 36.0699 22.59 35.86C22.7777 35.6528 22.9222 35.4103 23.0154 35.1467C23.1085 34.8831 23.1483 34.6036 23.1325 34.3244C23.1167 34.0453 23.0455 33.7721 22.9232 33.5207C22.8009 33.2693 22.6299 33.0447 22.42 32.86L19.97 30.71" stroke="black" stroke-width="1.75" stroke-linecap="round" stroke-linejoin="round"/>
<path d="M21.24 31.91L22.88 33.38C23.0873 33.5683 23.3301 33.7133 23.5942 33.8063C23.8583 33.8994 24.1384 33.9387 24.4179 33.9219C24.6974 33.9052 24.9708 33.8327 25.2219 33.7087C25.473 33.5847 25.6967 33.4118 25.88 33.2C26.0695 32.994 26.2159 32.7522 26.3107 32.4889C26.4054 32.2255 26.4465 31.9458 26.4316 31.6663C26.4167 31.3868 26.346 31.1131 26.2238 30.8613C26.1016 30.6095 25.9303 30.3847 25.72 30.2L21.89 26.6" stroke="black" stroke-width="1.75" stroke-linecap="round" stroke-linejoin="round"/>
<path d="M24.61 29.23L26.24 30.74C26.4446 30.9336 26.6868 31.0831 26.9515 31.1794C27.2162 31.2756 27.4978 31.3166 27.779 31.2997C28.0601 31.2829 28.3348 31.2085 28.5861 31.0813C28.8374 30.9541 29.06 30.7766 29.24 30.56V30.56C29.595 30.1306 29.7748 29.5829 29.7433 29.0267C29.7117 28.4704 29.4713 27.9465 29.07 27.56" stroke="black" stroke-width="1.75" stroke-linecap="round" stroke-linejoin="round"/>
<path d="M26.74 9.59L35 17.85" stroke="black" stroke-width="1.75" stroke-linecap="round" stroke-linejoin="round"/>
</g>
<defs>
<clipPath id="clip0_518_888">
<rect width="38.82" height="32.46" fill="white" transform="translate(1 5)"/>
</clipPath>
</defs>
</svg>
