<svg xmlns="http://www.w3.org/2000/svg" width="90" height="90" viewBox="0 0 90 90">
  <defs>
    <style>
      .cls-1 {
        fill: #ece8cd;
      }

      .cls-2 {
        fill: #fff;
        opacity: 0.4;
      }

      .cls-3, .cls-4 {
        opacity: 0.15;
      }

      .cls-5 {
        fill: #e5c099;
      }

      .cls-6 {
        fill: #ceae88;
      }
    </style>
  </defs>
  <g id="Layer_1" data-name="Layer 1">
    <g>
      <g>
        <path class="cls-1" d="M45.07,69.57c-7-4.45-8.37-9.82-8.79-12.72H41a9.53,9.53,0,0,0,1.76-5v-1l-5.38-3.52A11.89,11.89,0,0,0,40.93,39a11.68,11.68,0,0,0-23.36,0,11.9,11.9,0,0,0,3.52,8.37l-5.38,3.52v1a10.09,10.09,0,0,0,1.76,5h4.75c-.31,2.9-1.75,8.27-8.78,12.72-4,2.58-6.31,7.34-6.31,13.13h0A1.83,1.83,0,0,0,9,84.56c1.17.09,9.42.43,20.26.43s19.19-.31,20.37-.43a1.85,1.85,0,0,0,1.86-1.86h0C51.48,76.91,49.1,72.15,45.07,69.57Z"/>
        <g>
          <path class="cls-2" d="M21.09,47.34l-5.38,3.52v0l4.64,0A29.31,29.31,0,0,1,21.09,47.34Z"/>
          <path class="cls-2" d="M17.36,71.27c3.18-2.31,3.85-9.46,3.94-10.65a18.69,18.69,0,0,1-7.86,8.95c-4,2.58-6.31,7.34-6.31,13.13C9.13,76.1,12.14,75.09,17.36,71.27Z"/>
          <path class="cls-3" d="M37.05,67.84c3.67,3.45,9.14,4.59,11.42,4.93a12.78,12.78,0,0,0-3.4-3.2c-7-4.45-8.37-9.82-8.79-12.72H41a9.53,9.53,0,0,0,1.76-5v-1l-5.38-3.52A11.89,11.89,0,0,0,40.93,39a11.59,11.59,0,0,0-7.26-10.72c4,2.41,6.76,9.23,3.12,14.38-2.71,3.84-8,4.75-8,4.75h6.49c.07.06,3.2,5-1.06,7.8l-17.66,0a10.9,10.9,0,0,0,.92,1.64h8.69S32.11,63.2,37.05,67.84Z"/>
        </g>
      </g>
      <g>
        <g class="cls-4">
          <path d="M42.8,50.86l-5.38-3.52A11.89,11.89,0,0,0,40.93,39a11.76,11.76,0,0,0-.08-1.34c-.54.38-1,.7-1.36.92A8.83,8.83,0,0,0,36,43.79l0,.1,0,.09-.22,1.11,0,.24v.24a9,9,0,0,0,2.27,6.24A7.35,7.35,0,0,0,42.45,54a7.09,7.09,0,0,0,.35-2.09Z"/>
        </g>
        <path class="cls-5" d="M38.46,45.66c0,.54,0,5.56,5.17,5.57a13.61,13.61,0,0,0,6.08-1.58L80.58,34.72a4.49,4.49,0,0,0,2.34-3.9V12.05a4.17,4.17,0,0,0-3.57-3.6C72,7,59.3,5,52.6,5c-8.7,0-10.51.66-15.92,2.13a52.05,52.05,0,0,0-10,4.46S17.12,16.06,13.93,20c-3,3.72-6.85,14.59-6.85,17.43,0,2.29,5.67,2.34,7.15,1.91,3.12-.9,8.35-12.22,8.35-12.22s9.79-4.71,14.85-4.71l10.11,0c2.53,0,6,2.61,7.44,5.57,1.13,2.31-12.19,11.85-14,13a6.13,6.13,0,0,0-2.3,3.59Z"/>
        <path class="cls-6" d="M55.65,22.65c-.48-2.29-2.4-6.08-6.71-5.94-7.59.25-13.31.92-13.31.92L20.26,23.24A63.44,63.44,0,0,1,15.5,35.55c-1.3,2.54-2.46,3.59-3.23,4h0a8.23,8.23,0,0,0,2-.21c3.12-.9,8.35-12.22,8.35-12.22s9.79-4.71,14.85-4.71l10.11,0c2.53,0,6,2.61,7.44,5.57a.74.74,0,0,1,.06.4h0S56.11,24.8,55.65,22.65Z"/>
        <path class="cls-2" d="M29.25,27.39A11.65,11.65,0,0,0,17.57,39a11.45,11.45,0,0,0,.55,3.51C18.93,32.7,25.18,27.88,29.25,27.39Z"/>
        <path class="cls-6" d="M41.05,50.72s3,1.61,5.22.64S80.58,34.72,80.58,34.72a4.49,4.49,0,0,0,2.34-3.9V16c-1.46,10.68-6,14.88-11.14,17.86C67.57,36.27,41.05,50.72,41.05,50.72Z"/>
      </g>
    </g>
  </g>
</svg>
