<?xml version="1.0" encoding="utf-8"?>
<!-- Generator: Adobe Illustrator 22.1.0, SVG Export Plug-In . SVG Version: 6.00 Build 0)  -->
<svg version="1.1" id="Layer_1" xmlns="http://www.w3.org/2000/svg" xmlns:xlink="http://www.w3.org/1999/xlink" x="0px" y="0px"
	 viewBox="0 0 220.2 51.3" style="enable-background:new 0 0 220.2 51.3;" xml:space="preserve">
<style type="text/css">
	.st0{fill-rule:evenodd;clip-rule:evenodd;fill:#1946A0;}
	.st1{fill-rule:evenodd;clip-rule:evenodd;fill:#F03241;}
</style>
<g>
	<path class="st0" d="M0,6.9l0,37.6c0,3.2,2.6,5.7,5.7,5.7h2.4c3.2,0,5.7-2.6,5.7-5.7l0-37.6c0-3.2-2.6-5.7-5.7-5.7H5.7
		C2.6,1.2,0,3.8,0,6.9z"/>
	<g>
		<g>
			<path class="st0" d="M69.5,8.6c0-4.1,3.3-7.4,7.4-7.4h5.2l3.2,0l10.8,0c9.5,0,17.4,7.8,17.4,17.4l0,0c0,9.5-7.9,17.3-17.4,17.3
				l-10.8,0l0,8.8c0,3.1-2.5,5.6-5.6,5.6h-4.6c-3.1,0-5.6-2.5-5.6-5.6L69.5,8.6z M85.3,12.5l0,12.1H93c3.3,0,6-2.7,6-6l0,0
				c0-3.3-2.7-6.1-6-6.1L85.3,12.5z"/>
		</g>
	</g>
	<path class="st0" d="M35.2,1.9C45.8-2.1,56,0.5,62.8,6.9c2.2,2.1,1.9,5.7-0.6,7.5l-2.5,1.8c-1.8,1.2-4.2,1.1-5.8-0.2
		c-3.4-2.8-8.4-3.8-13.4-1.6c-2.7,1.2-4.8,3.4-5.9,6.1c-3.8,9.1,2.8,17.8,11.5,17.8c3,0,5.7-1.1,7.9-2.8c1.7-1.4,4.1-1.5,5.9-0.2
		l2.5,1.8c2.5,1.8,2.8,5.4,0.6,7.5c-4.6,4.3-10.7,6.9-17.5,6.9c-17.2,0-30.5-17-24-35.1C23.7,9.7,28.8,4.4,35.2,1.9z"/>
	<path class="st0" d="M122.9,1.2h6.4c1.6,0,3.1,0.7,4,2l18,23.2l0-20c0-2.8,2.3-5.1,5.1-5.1h2.8c2.8,0,5.1,2.3,5.1,5.1l0,38.9
		c0,2.8-2.3,5.1-5.1,5.1h-2.1c-3.7,0-7.2-1.7-9.5-4.6l-15.9-20l0,19.4c0,2.8-2.3,5.1-5.1,5.1h-3.8c-2.8,0-5.1-2.3-5.1-5.1l0-38.9
		C117.8,3.5,120.1,1.2,122.9,1.2z"/>
	<path class="st1" d="M214.4,50.3L214.4,50.3c4,0,6.8-4,5.4-7.8L205.7,5L201.5,16L214.4,50.3z"/>
	<path class="st1" d="M206.4,50.3h3.8L199.7,21h-0.1l-4.2,11.2l4.9,13.7C201.2,48.6,203.6,50.3,206.4,50.3z"/>
	<g>
		<path class="st0" d="M185.4,3.5l-15.9,42.1c-0.9,2.3,0.8,4.7,3.3,4.7h10.3c1.5,0,2.8-0.9,3.3-2.3l15.9-42.1
			c0.9-2.3-0.8-4.7-3.3-4.7l-10.3,0C187.2,1.2,185.9,2.1,185.4,3.5z M193.1,8.6l-0.8-2.4c-0.1-0.3-0.6-0.3-0.7,0l-0.8,2.4
			c0,0.2-0.2,0.3-0.3,0.3l-2.6,0c-0.4,0-0.5,0.5-0.2,0.7l2.1,1.5c0.1,0.1,0.2,0.3,0.1,0.4l-0.8,2.4c-0.1,0.3,0.3,0.6,0.6,0.4
			l2.1-1.5c0.1-0.1,0.3-0.1,0.4,0l2.1,1.5c0.3,0.2,0.7-0.1,0.6-0.4l-0.8-2.4c0-0.2,0-0.3,0.1-0.4l2.1-1.5c0.3-0.2,0.1-0.7-0.2-0.7
			l-2.6,0C193.3,8.9,193.2,8.8,193.1,8.6z M187.2,23.6l-0.8-2.4c-0.1-0.3-0.6-0.3-0.7,0l-0.8,2.4c0,0.2-0.2,0.3-0.3,0.3l-2.6,0
			c-0.4,0-0.5,0.5-0.2,0.7l2.1,1.5c0.1,0.1,0.2,0.3,0.1,0.4l-0.8,2.4c-0.1,0.3,0.3,0.6,0.6,0.4l2.1-1.5c0.1-0.1,0.3-0.1,0.4,0
			l2.1,1.5c0.3,0.2,0.7-0.1,0.6-0.4l-0.8-2.4c0-0.2,0-0.3,0.1-0.4l2.1-1.5c0.3-0.2,0.1-0.7-0.2-0.7l-2.6,0
			C187.4,23.9,187.2,23.8,187.2,23.6z M181.4,38.9l-0.8-2.4c-0.1-0.3-0.6-0.3-0.7,0l-0.8,2.4c0,0.2-0.2,0.3-0.3,0.3l-2.6,0
			c-0.4,0-0.5,0.5-0.2,0.7l2.1,1.5c0.1,0.1,0.2,0.3,0.1,0.4l-0.8,2.4c-0.1,0.3,0.3,0.6,0.6,0.4l2.1-1.5c0.1-0.1,0.3-0.1,0.4,0
			l2.1,1.5c0.3,0.2,0.7-0.1,0.6-0.4l-0.8-2.4c0-0.2,0-0.3,0.1-0.4l2.1-1.5c0.3-0.2,0.1-0.7-0.2-0.7l-2.6,0
			C181.6,39.1,181.5,39,181.4,38.9z"/>
	</g>
</g>
</svg>
