<svg width="48" height="48" viewBox="0 0 48 48" fill="none"
    xmlns="http://www.w3.org/2000/svg">
    <path d="M24 4.32401C30.4042 4.32401 31.1634 4.3451 33.6942 4.46463C36.0352 4.57009 37.3076 4.96382 38.1511 5.29427C39.2689 5.73019 40.0703 6.25048 40.9069 7.08715C41.7434 7.92383 42.2636 8.72536 42.6995 9.84327C43.0299 10.687 43.4165 11.9596 43.529 14.3009C43.6415 16.832 43.6696 17.5913 43.6696 23.9965C43.6696 30.4016 43.6485 31.161 43.529 33.6921C43.4235 36.0334 43.0299 37.306 42.6995 38.1497C42.2636 39.2676 41.7434 40.0691 40.9069 40.9058C40.0703 41.7425 39.2689 42.2628 38.1511 42.6987C37.3076 43.0291 36.0352 43.4158 33.6942 43.5283C31.1634 43.6408 30.4042 43.669 24 43.669C17.5958 43.669 16.8366 43.6479 14.3058 43.5283C11.9649 43.4229 10.6924 43.0291 9.84886 42.6987C8.73111 42.2628 7.9297 41.7425 7.09315 40.9058C6.25659 40.0691 5.73638 39.2676 5.30053 38.1497C4.97012 37.306 4.58348 36.0334 4.471 33.6921C4.35852 31.161 4.3304 30.4016 4.3304 23.9965C4.3304 17.5913 4.35149 16.832 4.471 14.3009C4.57645 11.9596 4.97012 10.687 5.30053 9.84327C5.73638 8.72536 6.25659 7.92383 7.09315 7.08715C7.9297 6.25048 8.73111 5.73019 9.84886 5.29427C10.6924 4.96382 11.9649 4.57712 14.3058 4.46463C16.8366 4.3451 17.5958 4.32401 24 4.32401ZM24 0C17.4833 0 16.6678 0.0281241 14.109 0.147649C11.5571 0.267175 9.81371 0.667936 8.28119 1.26556C6.7065 1.87022 5.3638 2.69284 4.03515 4.02871C2.69947 5.36458 1.88401 6.70045 1.26538 8.28241C0.674868 9.80811 0.267135 11.5518 0.147627 14.111C0.0281189 16.6703 0 17.4859 0 24.0035C0 30.5212 0.0281189 31.3367 0.147627 33.896C0.267135 36.4482 0.667838 38.1919 1.26538 39.7246C1.87698 41.2925 2.69947 42.6354 4.03515 43.9643C5.37083 45.3001 6.7065 46.1157 8.28822 46.7344C9.81371 47.325 11.5571 47.7328 14.116 47.8523C16.6749 47.9719 17.4903 48 24.007 48C30.5237 48 31.3392 47.9719 33.8981 47.8523C36.4499 47.7328 38.1933 47.3321 39.7258 46.7344C41.2935 46.1227 42.6362 45.3001 43.9649 43.9643C45.3005 42.6284 46.116 41.2925 46.7346 39.7106C47.3251 38.1849 47.7329 36.4412 47.8524 33.8819C47.9719 31.3227 48 30.5071 48 23.9895C48 17.4718 47.9719 16.6562 47.8524 14.097C47.7329 11.5447 47.3322 9.80108 46.7346 8.26834C46.123 6.70045 45.3005 5.35755 43.9649 4.02871C42.6292 2.69284 41.2935 1.87725 39.7118 1.25853C38.1863 0.667937 36.4429 0.260144 33.884 0.140618C31.3322 0.0281236 30.5167 0 24 0Z" fill="#CD0254"/>
    <path d="M24.0004 11.6713C17.1954 11.6713 11.677 17.1906 11.677 23.9965C11.677 30.8024 17.1954 36.3217 24.0004 36.3217C30.8053 36.3217 36.3237 30.8024 36.3237 23.9965C36.3237 17.1906 30.8053 11.6713 24.0004 11.6713ZM24.0004 31.9977C19.5856 31.9977 16.0004 28.419 16.0004 23.9965C16.0004 19.5741 19.5856 15.9953 24.0004 15.9953C28.4151 15.9953 32.0004 19.5741 32.0004 23.9965C32.0004 28.419 28.4151 31.9977 24.0004 31.9977Z" fill="#CD0254"/>
    <path d="M36.8092 14.0671C38.401 14.0671 39.6914 12.7765 39.6914 11.1844C39.6914 9.59238 38.401 8.30176 36.8092 8.30176C35.2174 8.30176 33.9269 9.59238 33.9269 11.1844C33.9269 12.7765 35.2174 14.0671 36.8092 14.0671Z" fill="#CD0254"/>
</svg>
