<svg width="64" height="56" viewBox="0 0 64 56" fill="none" xmlns="http://www.w3.org/2000/svg">
<g clip-path="url(#clip0_518_937)">
<path d="M36.84 51.74C43.0146 51.74 48.02 46.7346 48.02 40.56C48.02 34.3855 43.0146 29.38 36.84 29.38C30.6655 29.38 25.66 34.3855 25.66 40.56C25.66 46.7346 30.6655 51.74 36.84 51.74Z" stroke="black" stroke-width="2" stroke-linecap="round" stroke-linejoin="round"/>
<path d="M26.51 38.54C40.3 40.16 45.45 34.96 45.45 34.96" stroke="black" stroke-width="2" stroke-linecap="round" stroke-linejoin="round"/>
<path d="M21.53 51.47C19.53 51.47 17.99 49.68 17.99 47.35C17.8988 45.3094 18.5733 43.3085 19.8813 41.7396C21.1893 40.1708 23.0363 39.1473 25.06 38.87V47.35C25.06 49.67 23.48 51.47 21.53 51.47Z" stroke="black" stroke-width="2" stroke-linecap="round" stroke-linejoin="round"/>
<path d="M52.06 51.47C54.01 51.47 55.6 49.68 55.6 47.35C55.6913 45.3094 55.0167 43.3085 53.7087 41.7396C52.4007 40.1708 50.5537 39.1473 48.53 38.87V47.35C48.53 49.67 50.11 51.47 52.06 51.47Z" stroke="black" stroke-width="2" stroke-linecap="round" stroke-linejoin="round"/>
<path d="M19.95 28.89C26.5443 28.89 31.89 23.5443 31.89 16.95C31.89 10.3557 26.5443 5.01001 19.95 5.01001C13.3557 5.01001 8.01001 10.3557 8.01001 16.95C8.01001 23.5443 13.3557 28.89 19.95 28.89Z" stroke="black" stroke-width="2" stroke-linecap="round" stroke-linejoin="round"/>
<path d="M8.53003 18.95C8.53003 18.95 18.53 17.62 21.53 11.57C21.53 11.57 25 17.66 31.68 16.89" stroke="black" stroke-width="2" stroke-linecap="round" stroke-linejoin="round"/>
</g>
<defs>
<clipPath id="clip0_518_937">
<rect width="49.59" height="48.74" fill="white" transform="translate(7 4)"/>
</clipPath>
</defs>
</svg>
