<svg xmlns="http://www.w3.org/2000/svg" width="90" height="90" viewBox="0 0 90 90">
  <defs>
    <style>
      .cls-1 {
        fill: #537133;
      }

      .cls-2 {
        fill: #f1ab22;
      }

      .cls-3 {
        fill: #7ea34e;
      }

      .cls-4 {
        fill: #f1c335;
      }

      .cls-5 {
        fill: #fcd157;
      }

      .cls-6 {
        fill: #fbe28b;
      }
    </style>
  </defs>
  <g id="Layer_1" data-name="Layer 1">
    <g>
      <path class="cls-1" d="M36.7,28.55,51.49,0H67.14a7,7,0,0,1,7,7V9.74a12.27,12.27,0,0,1-5.45,9.62L53.24,30.21c-1.49.9-6.19,1.44-8.24,1.44a10.85,10.85,0,0,1-5.49-1.38L36.7,28.55"/>
      <path class="cls-2" d="M53.3,20.25H36.7a8.31,8.31,0,0,0-8.3,8.3v5.53a8.31,8.31,0,0,0,8.3,8.3H53.3a8.31,8.31,0,0,0,8.3-8.3V28.55A8.31,8.31,0,0,0,53.3,20.25Zm0,11.07v1.11H36.71V28.55H53.3Z"/>
      <path class="cls-3" d="M53.3,28.55,38.51,0H22.86a7,7,0,0,0-7,7V9.74a12.27,12.27,0,0,0,5.45,9.62L36.76,30.21c1.49.9,6.19,1.44,8.24,1.44a10.85,10.85,0,0,0,5.49-1.38l2.81-1.72"/>
      <path class="cls-4" d="M45,32.57a27,27,0,1,1-27,27,27,27,0,0,1,27-27m0-3.46A30.44,30.44,0,1,0,75.44,59.55,30.44,30.44,0,0,0,45,29.11Z"/>
      <circle class="cls-5" cx="45" cy="59.55" r="27.67" transform="translate(-28.93 49.26) rotate(-45)"/>
      <path class="cls-6" d="M57.06,36c0-.46-.06-.9-.07-1.35a27.4,27.4,0,0,0-12-2.77A27.65,27.65,0,0,0,31.31,83.57,56.88,56.88,0,0,0,57.06,36Z"/>
    </g>
  </g>
</svg>
