<svg width="24" height="24" viewBox="0 0 24 24" fill="none" xmlns="http://www.w3.org/2000/svg">
<g clip-path="url(#clip0_518_990)">
<path d="M2.88 3.88H5.84L9.71 13H17.8L20.99 6.27H7.43" stroke="black" stroke-width="1.75" stroke-linecap="round" stroke-linejoin="round"/>
<path d="M19.9 16.15H8.14001L9.56001 13.07" stroke="black" stroke-width="1.75" stroke-linecap="round" stroke-linejoin="round"/>
<path d="M9.09 21.99C10.178 21.99 11.06 21.108 11.06 20.02C11.06 18.932 10.178 18.05 9.09 18.05C8.00199 18.05 7.12 18.932 7.12 20.02C7.12 21.108 8.00199 21.99 9.09 21.99Z" fill="black"/>
<path d="M18.6599 21.99C19.7479 21.99 20.6299 21.108 20.6299 20.02C20.6299 18.932 19.7479 18.05 18.6599 18.05C17.5719 18.05 16.6899 18.932 16.6899 20.02C16.6899 21.108 17.5719 21.99 18.6599 21.99Z" fill="black"/>
</g>
<defs>
<clipPath id="clip0_518_990">
<rect width="19.87" height="18.98" fill="white" transform="translate(2 3)"/>
</clipPath>
</defs>
</svg>
