<svg width="168" height="102" viewBox="0 0 168 102" fill="none" xmlns="http://www.w3.org/2000/svg">
<path fill-rule="evenodd" clip-rule="evenodd" d="M21.2 41.1C20.7 42.3 20.2 43.5 19.6 44.6C18 48.6 17 52.9 17.3 57.3C17.5 61.4 19 65.2 22.2 68.1C24.4 70 27 71 29.7 71.4C34.5 72.2 39 71.6 43.7 70.4C51.4 68.2 59 66.3 66.7 64.2C76.4 61.6 86.1 58.9 95.8 56.3C96 56.3 96.1 56.2 96.3 56.1C90.7 56.1 85.1 56.1 79.4 56.1C79.6 50.9 79.9 45.8 80.1 40.7H80C79.9 40.9 79.8 41.2 79.7 41.4C77.8 46.2 76.1 50.9 74.2 55.7C74.1 55.9 74.1 56.1 73.7 56.1C70.3 56.1 67 56.1 63.6 56.1C63.8 55.4 64.1 54.8 64.3 54.1C68.5 43 72.9 31.9 77.1 20.8C78 18.3 79.1 15.7 80 13.2C80.1 12.9 80.2 12.8 80.6 12.8C83.9 12.8 87.2 12.8 90.4 12.8C90.4 12.8 90.5 12.8 90.6 12.8C88.6 18 86.7 23 84.7 28.2C84.7 28.2 84.8 28.2 84.8 28.3C85.3 27.7 85.7 27.1 86.2 26.4C89.4 22.1 92.6 17.6 95.8 13.3C96 13 96.2 12.9 96.5 12.9C107.1 12.9 117.7 12.9 128.4 12.9C128.3 13.1 128.3 13.4 128.2 13.6C126.8 17.6 125.3 21.7 123.9 25.7C123.7 26.2 123.5 26.4 123 26.4C119.5 26.4 115.9 26.4 112.3 26.4C111.9 26.4 111.7 26.5 111.6 26.9C111.2 28.1 110.8 29.3 110.3 30.6C114.2 30.6 118.2 30.6 122.2 30.6C121.9 31.5 121.6 32.4 121.3 33.2C120.5 35.6 119.5 38 118.7 40.2C118.6 40.6 118.4 40.7 118 40.7C114.4 40.7 110.8 40.7 107.2 40.7C106.8 40.7 106.6 40.8 106.5 41.2C106 42.8 105.4 44.3 104.7 46C108.6 46 112.6 46 116.6 46C116 47.8 115.4 49.5 114.7 51.3C132.1 46.5 149.5 41.9 166.9 37.2V37.3C166.1 37.6 165.2 38 164.4 38.3C154.8 42.4 145.3 46.6 135.6 50.7C123.4 56 111.2 61.3 98.9 66.5C86.6 71.5 74.4 76.7 62.2 82C54 85.8 45.8 89.5 37.5 93C33.2 94.9 28.7 96 24 96.5C20.3 96.9 16.5 96.8 12.8 95.7C7.6 94.1 3.8 90.9 1.6 86C0.700001 84 0.500001 82 0.600001 79.8C0.800001 75.5 2.2 71.4 3.8 67.5C6.1 62.2 9.1 57.4 12.3 52.6C14.9 48.8 17.8 45 20.8 41.5C21 41.3 21.1 41.2 21.2 41.1ZM104.6 17.9C104.4 18 104.3 18 104.3 18.2C100.1 23.6 95.8 28.9 91.6 34.2C91.5 34.4 91.4 34.6 91.4 34.9C91.5 40.8 91.7 46.7 91.8 52.6C91.8 52.7 91.8 52.9 91.8 53H91.9C96.1 41.2 100.4 29.6 104.6 17.9Z" fill="black"/>
<path fill-rule="evenodd" clip-rule="evenodd" d="M56.5 12.8C59.8 12.8 63 12.8 66.3 12.8C66 13.7 65.7 14.7 65.3 15.6C62.4 23.6 59.4 31.5 56.5 39.4C54.5 44.8 52.5 50.2 50.5 55.5C50.4 55.7 50.2 55.9 50.1 55.9C46.7 55.9 43.3 55.9 39.8 55.9H39.7C40.2 48.1 40.7 40.4 41.3 32.6C41.3 32.6 41.3 32.6 41.2 32.6C41 32.8 41 32.9 40.9 33C38.1 40.6 35.3 48 32.5 55.6C32.4 55.9 32.3 56.1 31.9 56.1C28.8 56.1 25.7 56.1 22.5 56.1C27.9 41.6 33.3 27.2 38.5 12.8C42.5 12.8 46.6 12.8 50.6 12.8C50.2 19.1 49.8 25.4 49.4 31.6H49.5C51.8 25.4 54.2 19.1 56.5 12.8Z" fill="black"/>
<path fill-rule="evenodd" clip-rule="evenodd" d="M51.1 56C52.1 53.2 53.2 50.5 54.2 47.8C57 40.3 59.9 32.8 62.7 25.3C64.3 21.3 65.8 17.2 67.3 13.2C67.4 12.9 67.5 12.8 67.9 12.8C71.1 12.8 74.4 12.8 77.6 12.8C77.7 12.8 77.8 12.8 77.9 12.8C77.8 13 77.8 13.2 77.7 13.4C73.8 23.9 69.9 34.1 66 44.5C64.6 48.2 63.2 52 61.8 55.7C61.7 55.9 61.7 56.2 61.3 56.2C57.9 56 54.6 56 51.1 56Z" fill="black"/>
</svg>
