<svg width="40" height="40" viewBox="0 0 40 40" fill="none" xmlns="http://www.w3.org/2000/svg">
<path fill-rule="evenodd" clip-rule="evenodd" d="M4.53516 4C4.53516 3.51675 4.92691 3.125 5.41016 3.125H30.3902C30.8734 3.125 31.2652 3.51675 31.2652 4V20.8292C33.8451 22.4177 35.5651 25.268 35.5651 28.52C35.5651 33.5044 31.5245 37.545 26.5401 37.545C24.4055 37.545 22.444 36.8039 20.8988 35.565H5.41016C4.92691 35.565 4.53516 35.1732 4.53516 34.69V4ZM29.5152 4.875V19.9968C28.5836 19.6717 27.5825 19.495 26.5401 19.495C21.5558 19.495 17.5151 23.5356 17.5151 28.52C17.5151 30.4982 18.1516 32.3277 19.2309 33.815H6.28516V4.875H29.5152ZM9.80518 9.82007C9.80518 9.33682 10.1969 8.94507 10.6802 8.94507H25.1202C25.6034 8.94507 25.9952 9.33682 25.9952 9.82007C25.9952 10.3033 25.6034 10.6951 25.1202 10.6951H10.6802C10.1969 10.6951 9.80518 10.3033 9.80518 9.82007ZM10.6802 14.7051C10.1969 14.7051 9.80518 15.0968 9.80518 15.5801C9.80518 16.0633 10.1969 16.4551 10.6802 16.4551H25.1202C25.6034 16.4551 25.9952 16.0633 25.9952 15.5801C25.9952 15.0968 25.6034 14.7051 25.1202 14.7051H10.6802ZM9.80518 21.3301C9.80518 20.8468 10.1969 20.4551 10.6802 20.4551H15.5602C16.0434 20.4551 16.4352 20.8468 16.4352 21.3301C16.4352 21.8133 16.0434 22.2051 15.5602 22.2051H10.6802C10.1969 22.2051 9.80518 21.8133 9.80518 21.3301ZM10.6802 26.2151C10.1969 26.2151 9.80518 26.6068 9.80518 27.0901C9.80518 27.5733 10.1969 27.9651 10.6802 27.9651H13.3202C13.8034 27.9651 14.1952 27.5733 14.1952 27.0901C14.1952 26.6068 13.8034 26.2151 13.3202 26.2151H10.6802ZM26.5401 21.245C22.5223 21.245 19.2651 24.5021 19.2651 28.52C19.2651 32.5379 22.5223 35.795 26.5401 35.795C30.558 35.795 33.8151 32.5379 33.8151 28.52C33.8151 24.5021 30.558 21.245 26.5401 21.245ZM30.3289 27.3488C30.6706 27.0071 30.6706 26.4531 30.3289 26.1114C29.9872 25.7697 29.4332 25.7697 29.0915 26.1114L25.318 29.8848L24.4215 28.4552C24.1647 28.0458 23.6247 27.9221 23.2153 28.1788C22.8059 28.4356 22.6821 28.9756 22.9389 29.385L24.4189 31.745C24.5604 31.9707 24.7971 32.1196 25.0618 32.1496C25.3266 32.1795 25.5905 32.0872 25.7789 31.8988L30.3289 27.3488Z" fill="black"/>
</svg>
