<svg width="237" height="57" viewBox="0 0 237 57" fill="none" xmlns="http://www.w3.org/2000/svg">
<path d="M57.5721 16.0777C56.104 16.1834 55.0763 16.363 54.3841 16.5743C49.0359 18.5608 46.3408 22.4491 46.3408 28.1336V46.0113C46.6974 47.5751 47.5468 47.9132 48.197 47.9132H48.2914C49.8434 47.5645 50.179 46.7721 50.179 46.1698V35.9208C52.4441 37.8015 54.7931 38.7736 57.2051 38.7736H57.8343C59.4492 38.7736 61.1376 38.3192 62.8889 37.4317C66.8529 35.0226 68.8663 31.6521 68.8663 27.4257C68.8663 24.4672 67.7337 21.7728 65.4791 19.3955C63.151 17.1977 60.5294 16.0883 57.5721 16.0883V16.0777ZM64.9548 27.1721V27.5947C64.9548 28.4717 64.7765 29.3909 64.4304 30.3102C62.8994 33.3532 60.7391 34.8219 57.8448 34.8219H57.3729C56.2718 34.8219 55.2336 34.5789 54.2898 34.0823C51.5842 32.5291 50.2629 30.4053 50.2629 27.6053V27.1826C50.2629 26.5487 50.3887 25.8091 50.6404 25.0166C52.1085 21.6566 54.3632 20.0294 57.5302 20.0294C59.1032 20.0294 60.5398 20.4521 61.7773 21.3185C63.8956 22.9034 64.9652 24.8898 64.9652 27.1932L64.9548 27.1721ZM76.0078 34.9804H74.6655V8.92453C74.6655 8.3434 74.3718 7.57208 72.9142 7.27623H72.5262C71.8341 7.27623 70.9741 7.62491 70.7854 9.38944V36.9774C71.1 38.5623 71.9914 38.9004 72.694 38.9004H75.84C76.5741 38.9004 77.4864 38.5834 77.7486 36.9774V36.84C77.434 35.3291 76.616 35.0015 76.0078 35.0015V34.9804ZM90.9409 16.0038C89.284 16.0038 87.5537 16.4264 85.7709 17.2717C81.6496 19.7442 79.5628 23.1464 79.5628 27.3834C79.5628 29.2853 80.0347 31.1872 80.9785 33.0891C83.5268 36.9351 86.7672 38.9004 90.6053 38.9004H91.2345C93.8037 38.9004 96.2367 37.9177 98.4703 35.9841L98.4179 37.2521V37.326L98.4494 37.4634C98.9318 38.6574 99.7287 38.9109 100.316 38.9109H100.452C101.952 38.6468 102.277 37.7804 102.277 37.0936V27.7109C102.277 25.8725 101.889 24.0868 101.103 22.354C98.6276 18.1487 95.209 16.0143 90.9304 16.0143L90.9409 16.0038ZM91.2555 35.0015H90.6263C89.8607 35.0015 88.9903 34.8219 88.057 34.4732C84.9529 32.8883 83.4429 30.6272 83.4429 27.5313V27.2989C83.4429 26.6226 83.5897 25.7562 83.8623 24.7947C85.4563 21.5192 87.7424 19.9343 90.857 19.9343H90.9409C92.0105 19.9343 93.0697 20.1457 94.0554 20.5894C96.9917 22.1743 98.4074 24.4143 98.4074 27.4045V27.7215C98.4074 28.8204 98.0928 29.9826 97.5265 31.166C95.8801 33.723 93.7513 35.0226 91.2345 35.0226L91.2555 35.0015ZM116.109 35.0649H115.27L113.487 34.917C112.365 34.4943 111.809 33.3955 111.809 31.5358V20.2302H114.347L115.606 20.3147L115.679 20.2936C116.99 19.8075 117.252 18.9834 117.252 18.3706V18.2649C116.875 16.7328 116.046 16.4053 115.364 16.4053L114.704 16.4898H111.82V9.70642C111.82 9.12529 111.526 8.3751 110.111 8.06868H109.723C109.051 8.06868 108.202 8.41736 108.013 10.1819V16.4792H106.461L105.266 16.3525V16.5109C104.678 16.6166 104.06 17.0392 103.85 18.286V18.3494C103.85 18.9834 104.112 19.8075 105.423 20.2725L105.486 20.2936L106.797 20.2091H108.013V31.9902C108.013 32.9411 108.118 33.7864 108.359 34.526C109.639 37.4106 111.631 38.8581 114.284 38.8581H115.941C116.644 38.8581 117.546 38.5411 117.797 37.0619V36.8611C117.504 35.3608 116.717 35.0438 116.12 35.0438L116.109 35.0649ZM130.077 16.0038C128.42 16.0038 126.69 16.4264 124.907 17.2717C120.818 19.7442 118.72 23.1464 118.72 27.3834C118.72 29.2853 119.192 31.1872 120.136 33.0891C122.695 36.9351 125.935 38.9004 129.763 38.9004H130.392C132.951 38.9004 135.384 37.9177 137.628 35.9841L137.575 37.2521V37.326L137.596 37.4634C138.079 38.6574 138.876 38.9109 139.463 38.9109H139.61C141.12 38.6574 141.434 37.7804 141.434 37.0936V27.7109C141.434 25.883 141.046 24.0974 140.281 22.354C137.785 18.1487 134.366 16.0143 130.088 16.0143L130.077 16.0038ZM130.392 35.0015H129.763C129.008 35.0015 128.127 34.8219 127.193 34.4732C124.079 32.8883 122.579 30.6272 122.579 27.5313V27.2989C122.579 26.6226 122.716 25.7668 122.999 24.7947C124.572 21.5192 126.879 19.9343 129.983 19.9343H130.067C131.147 19.9343 132.206 20.1457 133.181 20.6C136.139 22.1849 137.565 24.4038 137.565 27.394V27.7109C137.565 28.8098 137.25 29.9826 136.673 31.1555C134.996 33.7547 132.94 35.0226 130.381 35.0226L130.392 35.0015ZM155.487 16.0038C152.896 16.0038 150.453 16.9336 148.251 18.7509V17.7577C148.251 17.1766 147.936 16.3842 146.437 16.0249H146.353C145.556 16.0249 144.57 16.3947 144.36 18.2438V36.9034L144.381 36.9774C144.675 38.5623 145.577 38.8792 146.269 38.8792H146.405C147.936 38.6362 148.251 37.7698 148.251 37.083V28.5774C148.251 26.6121 148.461 25.1751 148.828 24.3192C150.38 21.3925 152.498 19.966 155.277 19.966H155.508C156.137 19.966 156.871 20.0717 157.636 20.283C160.992 21.5087 162.597 24.0128 162.597 27.9434V36.9879C162.597 37.7064 162.911 38.6151 164.421 38.8898H164.642C166.152 38.594 166.466 37.7909 166.466 37.157V26.8868C166.466 24.4566 165.575 22.1321 163.813 19.9449C161.401 17.3351 158.612 16.0143 155.497 16.0143L155.487 16.0038ZM171.804 10.3298H171.699C170.986 10.3298 170.063 10.6468 169.749 12.2317L169.728 12.3057L169.749 12.3796C170.095 13.9645 170.923 14.2815 171.563 14.2815H171.615C173.272 14.0702 173.629 13.2249 173.629 12.5487V12.0626C173.629 11.4815 173.314 10.6891 171.804 10.3298ZM171.804 15.8664H171.699C170.913 15.8664 169.916 16.2362 169.738 18.0853V36.9774C170.032 38.5623 170.923 38.8792 171.626 38.8792H171.773C173.304 38.6362 173.629 37.7592 173.629 37.0513V17.6098C173.629 16.7645 172.999 16.1728 171.804 15.8664ZM188.478 35.0649H187.639L185.856 34.917C184.734 34.4943 184.178 33.3955 184.178 31.5358V20.2302H186.695L187.975 20.3147L188.048 20.2936C189.338 19.8075 189.621 18.9834 189.621 18.3706L189.6 18.286C189.233 16.7328 188.405 16.4053 187.733 16.4053L187.062 16.4898H184.178V9.70642C184.178 9.12529 183.885 8.3751 182.469 8.06868H182.091C181.42 8.06868 180.571 8.41736 180.372 10.1819V16.4792H178.82L177.624 16.3525V16.5109C177.037 16.6166 176.418 17.0604 176.208 18.3494C176.208 18.9834 176.481 19.8075 177.781 20.2725L177.855 20.2936L179.166 20.2091H180.372V31.9902C180.372 32.9411 180.477 33.7864 180.728 34.526C182.008 37.4106 183.979 38.8581 186.653 38.8581H188.289C189.002 38.8581 189.894 38.5411 190.156 37.0619V36.8611C189.862 35.3608 189.076 35.0438 188.478 35.0438V35.0649ZM202.289 16.1094C200.087 16.1094 197.926 16.8174 195.85 18.2226C192.631 20.6951 190.995 23.8226 190.995 27.5208C190.995 29.9192 191.802 32.2966 193.407 34.6C196.007 37.4528 198.86 38.8898 201.901 38.8898H202.53C204.166 38.8898 205.854 38.4672 207.595 37.5691C211.58 35.1389 213.604 31.7577 213.604 27.5313C213.604 24.5411 212.451 21.8257 210.206 19.4483C207.857 17.2506 205.194 16.1306 202.278 16.1306L202.289 16.1094ZM202.216 20.0717C203.81 20.0717 205.257 20.5155 206.463 21.3713C208.623 22.9879 209.672 24.9215 209.672 27.2672V27.6581C209.672 28.5457 209.493 29.4755 209.147 30.4053C207.606 33.4483 205.435 34.9487 202.541 34.9487H202.069C200.947 34.9487 199.908 34.6845 198.965 34.1879C196.238 32.6347 194.917 30.4898 194.917 27.6687V27.2777C194.917 26.6015 195.043 25.8513 195.273 25.0906C196.741 21.7094 199.017 20.0717 202.195 20.0717H202.216ZM231.106 27.246L231.033 27.2038C230.456 26.9925 227.258 26.1683 220.934 24.6257C220.169 24.5623 218.879 24.3509 218.868 23.7804L218.921 23.4317C220.284 21.2128 222.067 20.1562 224.374 20.1562C226.125 20.1562 227.709 20.8219 229.093 22.1638C229.9 23.5057 230.697 24.1502 231.589 24.1502C233.162 23.9177 233.497 23.0091 233.497 22.2694L233.424 21.4453L233.372 21.3713C231.211 17.9057 228.181 16.1517 224.384 16.1517C222.759 16.1517 221.092 16.5955 219.414 17.483C216.415 19.4166 214.904 21.4981 214.904 23.6325C214.904 25.1857 215.597 26.517 216.981 27.5842C217.191 27.7743 217.673 28.2181 228.495 30.6483C229.586 30.754 229.586 31.2611 229.586 31.4725L229.481 31.874C228.055 33.8815 226.335 34.8747 224.238 34.8747C222.486 34.8747 220.924 34.2408 219.592 33.0045C218.543 31.5253 217.809 30.8596 217.117 30.8596C215.387 31.0498 215.02 31.9162 215.02 32.5925V33.0785C215.02 33.4272 215.156 33.7864 215.418 34.1774C217.725 37.3049 220.557 38.8898 223.913 38.8898C225.528 38.8898 227.08 38.5728 228.527 37.8966C231.882 35.9947 233.56 33.8287 233.56 31.4725V31.4091C233.56 29.7185 232.742 28.3238 231.106 27.246Z" fill="black"/>
<path d="M9.06053 7.18113L9.76314 11.6611C12.5526 11.4815 15.2162 11.5555 17.7331 11.7351L20.0401 11.9675C22.2948 12.2211 24.3607 12.5804 26.1854 12.9713L26.8146 10.4038L27.4438 13.2566C31.7119 14.2604 31.219 13.5313 31.219 13.5313C27.9996 4.04302 21.9173 -0.0566027 13.3181 1.68679C4.29956 3.51472 2.14978 12.7072 2.14978 12.7072C3.7962 12.3479 5.43213 12.0732 7.03659 11.8936L9.05005 7.1917L9.06053 7.18113Z" fill="#55B849"/>
<path d="M9.06048 7.18113C8.98707 7.97359 8.95561 8.50189 9.11291 9.4L9.18632 9.94944L9.23875 10.3298L9.34362 11.0377L9.41703 11.4604L9.46946 11.8619L9.49044 11.9675C9.49044 11.9887 9.55336 11.9675 9.57433 11.9675H9.78406L10.7488 11.9147L11.6088 11.883C13.9158 11.8196 16.4536 11.9042 19.0543 12.1789C20.3547 12.2845 21.655 12.4959 22.9659 12.7072C23.6161 12.8128 24.2662 12.9185 24.9164 13.0453L26.007 13.2777L26.2168 13.32L26.3216 13.3411C26.3636 13.3411 26.3636 13.2777 26.3741 13.2355L26.4789 12.7706L26.6048 12.2845L26.7306 11.7562C26.7306 11.7562 26.7306 11.7351 26.7306 11.7562L26.804 12.0521L27.0872 13.2777L27.1186 13.4257C27.1396 13.4574 27.1186 13.5313 27.1815 13.5313L27.4542 13.5947L27.7688 13.6687L28.3456 13.7743C29.0796 13.9328 29.7718 14.0702 30.5058 14.0913C30.7156 14.0913 30.8834 14.0913 31.135 14.0385L31.3448 13.9328C31.4287 13.8589 31.523 13.6475 31.4706 13.5102L31.3657 13.2355C31.2609 12.8974 31.156 12.5804 31.0302 12.2845C29.9815 9.45283 28.5868 7.21283 27.3913 5.83925C26.1958 4.43396 25.2939 3.81057 25.3149 3.8C25.3149 3.8 24.843 3.37736 23.9097 2.82793C22.9869 2.26793 21.5502 1.56 19.673 1.22189C17.8169 0.862643 15.5518 0.904907 13.1922 1.38038C10.8537 1.86642 8.38933 3.03925 6.41782 4.90944C4.46729 6.76906 3.00964 9.19925 2.13924 11.7245L2.05535 11.9675L1.95048 12.2845L1.84561 12.7494L1.78269 12.9608L1.76172 13.0664H1.86659L3.22986 12.7917C3.85906 12.686 4.48827 12.5592 5.0965 12.4747C5.7257 12.3691 6.31296 12.2845 6.92119 12.2211L7.1519 12.1894C7.18336 12.1683 7.2253 12.1894 7.25676 12.1577L7.29871 12.0521L7.43504 11.7351L7.60283 11.3125L7.91743 10.5728L8.44176 9.32604C8.8088 8.48076 8.92415 7.95245 9.04999 7.16C8.5676 7.79396 8.27398 8.23774 7.89645 9.08302L7.37212 10.3192L6.84778 11.5872C6.23955 11.6611 5.61035 11.7562 4.99163 11.8513C4.36243 11.9359 3.73322 12.0415 3.10402 12.1683L2.57968 12.274C2.55871 12.274 2.57968 12.274 2.57968 12.274L2.68455 11.8936C3.52349 9.44227 4.94968 7.09661 6.82681 5.32151C8.71442 3.52528 11.053 2.40528 13.3286 1.94038C15.6566 1.5283 17.8274 1.50717 19.6101 1.84528C21.3929 2.16227 22.7561 2.82793 23.6475 3.36679C24.5389 3.8951 24.9793 4.29661 24.9793 4.29661C24.9793 4.29661 25.8392 4.89887 26.9718 6.25132C28.1253 7.58264 29.4886 9.73812 30.5163 12.5064L30.8624 13.4362L30.9043 13.5419L30.9253 13.6159V13.637L30.9568 13.7109C30.9043 13.7109 31.3133 13.4785 31.135 13.5842L31.1036 13.6053C31.135 13.6053 31.1036 13.6264 31.0616 13.5525L31.0197 13.4891L30.9777 13.4468H30.9568C30.8729 13.4785 30.7051 13.4891 30.5373 13.4891C29.9081 13.4679 29.195 13.3306 28.4924 13.1721L27.9156 13.0664L27.6639 13.003L27.4227 11.8936L27.192 10.8687L27.1186 10.5517L27.0872 10.3826C27.0872 10.3404 27.0872 10.3404 27.0662 10.3404H26.5209C26.5209 10.3404 26.4999 10.3087 26.4999 10.3826L26.437 10.6257L26.0595 12.126L25.9546 12.6121C25.9546 12.6332 25.9546 12.6332 25.9022 12.6121L25.0632 12.443C24.413 12.3162 23.7524 12.2 23.0917 12.0943C21.7809 11.883 20.4491 11.6928 19.1382 11.5872C16.5165 11.3019 13.9578 11.2174 11.6192 11.2702L10.7488 11.3019L10.0148 11.3442L9.95185 10.9215L9.82601 10.2242L9.77358 9.84377L9.68968 9.31547C9.53238 8.40679 9.35411 7.89962 9.06048 7.17057V7.18113Z" fill="black"/>
<path d="M7.09942 26.4642L11.0005 31.2189C12.5735 29.803 14.1465 28.4717 15.7195 27.2355L13.7899 20.3147L18.6453 24.9638C19.5891 24.2664 22.1584 22.2589 23.0707 21.6143L21.7913 14.8521L25.7448 20.2619C27.2339 19.3109 27.9261 18.7192 29.2579 17.9374L30.6421 17.1555C31.3762 16.7328 31.4076 16.7117 32.0893 16.3525L31.6174 11.2808L34.2391 14.7992C37.9828 12.9502 41.1184 12.1366 41.1184 12.1366C41.1184 12.1366 30.3695 1.31698 14.4192 11.006C-3.14612 21.6777 4.1107 38.9004 4.1107 38.9004C6.13464 36.6604 6.4807 35.4453 8.51512 33.5117L7.09942 26.4642Z" fill="#55B849"/>
<path d="M7.09947 26.4642C7.43504 27.1721 7.68672 27.6264 8.25301 28.366L8.62004 28.7887L9.03951 29.317L10.0148 30.4792L10.5181 31.1132L10.9691 31.6415L11.4934 31.1872C12.3009 30.4687 13.1398 29.7608 14.0102 29.0317L15.3211 27.954L15.6671 27.6898L15.8978 27.4996L16.0656 27.3623C16.0866 27.3094 16.0446 27.2355 16.0342 27.1509L15.772 26.2211L14.8072 22.7555L14.3877 21.3079H14.4087L17.1038 23.8966L18.6349 25.3758C18.7607 25.3125 18.8865 25.1962 19.0124 25.1117L19.2221 24.9532L19.5996 24.6679L20.3547 24.0868L21.8753 22.9245L22.6303 22.354L23.0183 22.0687L23.291 21.8574L23.3958 21.8045L23.4378 21.7623V21.7094L23.3853 21.4664L22.6513 17.6626L22.3576 16.1094C22.3576 16.1094 22.3576 16.0883 22.3576 16.1094L22.5045 16.2996L22.9239 16.8702L24.8115 19.4272L25.2625 20.0611L25.619 20.5577L25.6715 20.6634C25.6715 20.6951 25.7134 20.6317 25.7344 20.6317L25.8917 20.526L26.2063 20.3358L27.4857 19.4483C27.968 19.1102 28.4504 18.7826 28.9538 18.4762C29.4257 18.1804 29.9291 17.9057 30.4219 17.6309L31.8901 16.7857L32.0998 16.68L32.2886 16.5743C32.341 16.5426 32.4459 16.5321 32.4144 16.4475L32.362 15.8664L32.2781 15.0211L32.0159 12.2951C32.0159 12.274 32.0159 12.2951 32.0159 12.2951L32.8339 13.3834L33.568 14.3343L33.956 14.8943L34.1342 15.1268L34.1552 15.1585H34.1762L34.2391 15.1162L34.3649 15.0528L34.732 14.8732C35.4241 14.5562 36.0953 14.2392 36.7245 13.9751C37.4795 13.6581 38.1926 13.394 38.8742 13.1509L39.881 12.8128L40.3529 12.6649L40.9821 12.4853L41.4645 12.3479L41.6952 12.2951C41.6742 12.2423 41.5903 12.1894 41.5588 12.126C41.3491 11.9147 41.1394 11.7245 40.9087 11.5238C40.6675 11.3125 40.4472 11.1328 40.2165 10.9638C39.7761 10.6151 39.3566 10.3298 38.9581 10.0762C37.448 9.10415 36.5147 8.70264 36.5252 8.70264C36.5252 8.70264 35.5185 8.17434 33.6099 7.57207C31.7013 6.98038 28.8175 6.40981 25.3254 6.77962C21.8438 7.11773 17.8798 8.47019 14.0731 10.8475C12.1855 12.0098 10.2979 13.4257 8.62004 15.1374C6.94217 16.8279 5.45305 18.8355 4.38341 21.1072C3.30327 23.3577 2.63212 25.8302 2.39093 28.3449C2.18119 30.8596 2.35947 33.3955 2.8838 35.8151C3.00964 36.4174 3.15646 37.0196 3.33473 37.6113L3.62836 38.4883C3.71226 38.7419 3.8381 39.0377 3.94296 39.2913L3.97442 39.397C3.9954 39.4287 4.00588 39.4287 4.01637 39.397L4.05832 39.3653L4.20513 39.2068L4.48827 38.8898L4.86579 38.446L5.15942 38.0974L5.70473 37.3894L6.7534 35.9525C7.08898 35.4875 7.43504 35.0332 7.82305 34.6211C8.01181 34.4098 8.20057 34.1985 8.39982 34.0083L8.81929 33.5857L8.71442 33.0151L8.08522 29.877L7.80208 28.5457C7.61332 27.6264 7.41407 27.1404 7.06801 26.4325C7.03655 27.2143 7.04703 27.7532 7.22531 28.6513L7.49796 29.9826L8.12717 33.1208L8.1796 33.3849L8.00132 33.5645L7.3931 34.1985C7.00509 34.6423 6.63805 35.1072 6.2815 35.5721L5.23283 37.0091L4.70849 37.717L4.41487 38.0657L4.20513 38.2981C4.18416 38.2981 4.20513 38.3192 4.20513 38.2981C4.10026 38.0023 3.9954 37.717 3.9115 37.4317C3.74372 36.8611 3.5969 36.2694 3.47106 35.6883C2.94672 33.3215 2.77894 30.8491 3.00964 28.3977C3.21938 25.9675 3.88004 23.5374 4.92871 21.3608C5.97739 19.163 7.41407 17.2083 9.06048 15.5494C10.6964 13.8589 12.5211 12.4853 14.4087 11.323C18.1315 9.01962 22.0221 7.6883 25.4198 7.35019C28.7965 6.99094 31.6069 7.56151 33.4526 8.12151C35.3088 8.70264 36.284 9.23094 36.284 9.22038C36.284 9.24151 37.1859 9.62189 38.6645 10.5728C39.0315 10.8158 39.451 11.1011 39.881 11.4181L40.5311 11.9675L39.7237 12.2211C39.3881 12.3268 39.0525 12.4325 38.7064 12.5698C38.0248 12.8128 37.3012 13.0981 36.5462 13.4151C35.8855 13.6792 35.2144 13.9857 34.5222 14.3132L34.3754 14.3872L34.0608 13.9645L33.3582 13.0136L32.3725 11.7034L31.4601 10.5094L31.3553 10.3615L31.2923 10.277C31.2923 10.277 31.2399 10.1925 31.2504 10.2453L31.2819 10.6362L31.3553 11.4075L31.6908 15.1057L31.7747 15.9192L31.7957 16.1623L31.6279 16.2679C31.1246 16.5321 30.6422 16.7962 30.1388 17.0921C29.6459 17.3774 29.1426 17.6521 28.6287 17.9691C28.1358 18.286 27.643 18.603 27.1606 18.9517C26.7411 19.237 26.3216 19.5223 25.8812 19.797L25.8497 19.8287L25.7449 19.6913L25.2834 19.0574L23.3958 16.5004L22.9973 15.9298L22.3262 15.0211L22.1899 14.8098L22.1165 14.7358C22.0955 14.7147 22.064 14.6619 22.064 14.683L21.9592 14.7147L21.7704 14.7992L21.5816 14.8838L21.5397 14.9049C21.5187 14.9049 21.5397 14.9683 21.5397 15.0106L21.5711 15.1162L21.655 15.5706L22.0745 17.7577L22.7771 21.477L21.5187 22.4068L19.9981 23.5691L18.6978 24.5623L17.5128 23.4211L14.7862 20.8113L13.4544 19.5434C13.0979 19.0891 13.3496 19.6913 13.402 19.9238L13.6537 20.8008L14.22 22.8928L15.1847 26.3479L15.3945 27.1192L15.2896 27.1932L14.954 27.4679L13.6327 28.5562C12.7623 29.2747 11.9234 29.9932 11.1159 30.7117L11.053 30.7751L10.99 30.7011L10.4972 30.0883L9.50093 28.9049L9.08146 28.3766L8.72491 27.954C8.15863 27.246 7.74964 26.8974 7.12044 26.4325L7.09947 26.4642Z" fill="black"/>
<path d="M19.0648 28.5457C19.0648 28.5457 13.2132 30.7645 14.0941 36.6815C14.8911 41.9645 21.0154 42.8309 21.9067 41.8377C22.7876 40.8551 19.0019 37.4634 18.7817 35.2657C18.551 33.0785 21.5082 28.0174 19.0543 28.5457H19.0648Z" fill="#FAED2F"/>
<path d="M19.0649 28.5457C18.2889 28.6725 17.754 28.8415 16.9885 29.391L16.5481 29.7291L16.2544 29.9721C15.9818 30.2151 15.6252 30.5743 15.3316 30.923C14.7234 31.6838 14.199 32.6136 13.9264 33.6702C13.6537 34.7268 13.6432 35.8679 13.8425 36.9457C14.0208 38.0023 14.4717 39.0166 15.1009 39.7985C15.6986 40.5698 16.4327 41.1298 17.0934 41.4891C18.4357 42.2498 19.4424 42.3555 19.4319 42.366C19.4319 42.366 19.6731 42.4189 20.1135 42.4717C20.3233 42.4717 20.5959 42.4928 20.9105 42.4717C21.2251 42.4294 21.5922 42.4294 22.0116 42.123C22.1165 42.0491 22.2214 41.9117 22.2633 41.7743C22.3262 41.637 22.3262 41.4891 22.3262 41.3517C22.3053 41.0981 22.2214 40.8868 22.1165 40.6649C21.9382 40.2423 21.697 39.8513 21.4349 39.4604C20.9105 38.6679 20.2813 37.8543 19.778 36.9774C19.5158 36.5547 19.2851 36.0898 19.1488 35.6249C19.0124 35.1706 19.0649 34.6951 19.1488 34.1985C19.3375 33.2264 19.6731 32.2438 19.9248 31.3879C20.1135 30.8068 20.2394 30.2996 20.2708 30.046C20.3443 29.56 20.3757 29.1374 20.166 28.7464C20.0611 28.5351 19.8304 28.3977 19.6207 28.3872C19.4319 28.3872 19.2536 28.4506 19.0754 28.5351C19.9877 28.5562 19.8304 29.0634 19.7046 29.9298C19.6521 30.1411 19.5473 30.6166 19.369 31.1977C19.1278 32.043 18.7817 33.0257 18.5825 34.0717C18.551 34.3359 18.5091 34.6 18.4986 34.8959C18.4986 35.1811 18.53 35.4981 18.6035 35.7623C18.7712 36.3223 19.0229 36.8189 19.2956 37.2732C19.8409 38.1819 20.4491 39.006 20.9735 39.7774C21.2251 40.1683 21.4558 40.5487 21.6027 40.8974C21.7075 41.077 21.7495 41.2566 21.76 41.394C21.76 41.5313 21.76 41.6053 21.6551 41.6476C21.4873 41.7743 21.1517 41.8377 20.8896 41.8589C20.6274 41.88 20.3862 41.8589 20.187 41.8589C19.7885 41.806 19.5577 41.7532 19.5577 41.7532C19.5787 41.7532 18.6454 41.6476 17.408 40.9608C16.7997 40.6121 16.1286 40.1155 15.5833 39.397C15.0275 38.6996 14.6185 37.7909 14.4507 36.8083C14.2724 35.8151 14.2829 34.7691 14.5346 33.8076C14.7758 32.8566 15.2687 31.9902 15.814 31.3034C16.0866 30.9864 16.4117 30.6483 16.6739 30.4159L16.9466 30.1728L17.366 29.8559C18.0791 29.3276 18.4566 29.0106 19.0858 28.5245L19.0649 28.5457Z" fill="black"/>
<path d="M21.7284 43.2642C21.7284 43.2642 16.2124 46.2438 17.8483 52.0023C19.3164 57.1162 25.5036 57.1796 26.2691 56.0702C27.0347 54.9819 22.84 52.1185 22.3261 49.9736C21.8018 47.8287 24.1089 42.4189 21.7179 43.2642H21.7284Z" fill="#FAED2F"/>
<path d="M21.7285 43.2641C20.9735 43.4966 20.4701 43.7396 19.778 44.3842C19.6731 44.4687 19.5473 44.5955 19.3795 44.7751L19.1278 45.0709C18.8866 45.3562 18.5825 45.7577 18.3413 46.1592C17.817 46.9728 17.4289 47.9766 17.2926 49.0543C17.1668 50.1426 17.2926 51.2732 17.6282 52.2981C17.9428 53.3336 18.5405 54.274 19.2432 54.9608C19.9458 55.6581 20.7532 56.123 21.4454 56.3977C22.8716 56.9577 23.8888 56.926 23.8783 56.9472C23.8783 56.9472 24.13 56.9683 24.5704 56.9472C24.7801 56.9472 25.0528 56.9155 25.3674 56.8415C25.682 56.7675 26.0386 56.7147 26.4161 56.366C26.5209 56.2604 26.5943 56.123 26.6258 55.9751C26.6573 55.8272 26.6573 55.6792 26.6258 55.5525C26.5734 55.2989 26.4685 55.0981 26.3427 54.8868C26.1015 54.4958 25.8183 54.1472 25.5037 53.7774C24.8745 53.0694 24.1614 52.3404 23.5322 51.5374C23.2176 51.1358 22.924 50.7132 22.7352 50.2694C22.5255 49.8468 22.5255 49.3713 22.5255 48.8641C22.5989 47.8709 22.8086 46.8566 22.945 45.9691C23.0289 45.3668 23.0918 44.8596 23.0918 44.5955C23.1128 44.12 23.0918 43.6974 22.8191 43.3275C22.6933 43.1479 22.4416 43.0317 22.2424 43.0528C22.0326 43.074 21.8648 43.1585 21.718 43.2641C22.6199 43.1585 22.5255 43.7079 22.5045 44.5638C22.5045 44.7962 22.4416 45.2823 22.3472 45.874C22.2214 46.7404 22.0116 47.7758 21.9278 48.8325C21.9278 49.1072 21.9278 49.3608 21.9487 49.6777C21.9802 49.9419 22.0536 50.2483 22.1794 50.523C22.4101 51.0513 22.7247 51.474 23.0498 51.8966C23.7105 52.7419 24.4131 53.4815 25.0423 54.1789C25.3569 54.5275 25.6296 54.8657 25.8288 55.2038C25.9337 55.3623 26.0071 55.5208 26.0385 55.6687C26.0595 55.8166 26.0386 55.88 25.9756 55.9328C25.8078 56.0913 25.4723 56.197 25.2206 56.2498C24.9584 56.3026 24.7172 56.3238 24.518 56.3343H23.9097C23.9097 56.3132 22.9659 56.3343 21.6656 55.806C21.0154 55.5525 20.3023 55.1404 19.6521 54.517C19.002 53.883 18.4986 53.0377 18.184 52.0868C17.8694 51.1358 17.7645 50.0792 17.8694 49.1072C17.9952 48.1245 18.3623 47.2053 18.8132 46.4657C19.0544 46.0853 19.3375 45.726 19.5473 45.4513L19.7989 45.1872C19.9458 45.0181 20.0821 44.8913 20.166 44.8068C20.8162 44.194 21.1517 43.8136 21.7075 43.2536L21.7285 43.2641Z" fill="black"/>
<path d="M34.1028 53.7774C34.1028 53.7774 39.8181 51.1992 38.5806 45.3562C37.469 40.1366 31.3133 39.6506 30.4744 40.6755C29.6355 41.7109 33.6204 44.8702 33.9665 47.0468C34.323 49.2234 31.6594 54.443 34.0923 53.7774H34.1028Z" fill="#FAED2F"/>
<path d="M34.1028 53.7774C34.8683 53.6083 35.3927 53.397 36.1267 52.8053C36.2316 52.7313 36.3679 52.594 36.5462 52.4355L36.8294 52.1713C37.0915 51.9072 37.4166 51.5374 37.6893 51.1464C38.2451 50.3751 38.717 49.403 38.9267 48.3359C39.1364 47.2581 39.084 46.117 38.8218 45.0604C38.5702 44.0038 38.0563 43.0317 37.4061 42.3132C36.7455 41.5525 35.9799 41.0453 35.3088 40.7072C33.914 40.0415 32.8968 39.9993 32.9178 39.9887C32.9178 39.9887 32.6661 39.9464 32.2257 39.9359C32.0159 39.9359 31.7328 39.9359 31.4182 39.9781C31.1036 40.0204 30.7366 40.0521 30.3381 40.3691C30.2332 40.4536 30.1493 40.5804 30.1074 40.7389C30.0549 40.8868 30.0549 41.0242 30.0654 41.1615C30.1074 41.4151 30.2017 41.6264 30.3066 41.8377C30.5163 42.2604 30.7995 42.6302 31.0826 43C31.6594 43.7713 32.3096 44.5426 32.8863 45.3879C33.1695 45.8106 33.4317 46.2543 33.589 46.6981C33.7463 47.1419 33.7358 47.6174 33.6729 48.1245C33.568 49.1177 33.2744 50.1321 33.0751 50.9774C32.9388 51.5902 32.8444 52.0974 32.8234 52.351C32.7605 52.8264 32.7605 53.2491 32.9912 53.6189C33.0961 53.8302 33.3478 53.957 33.547 53.9359C33.7567 53.9359 33.9245 53.8725 34.0923 53.7774C33.18 53.8091 33.3058 53.2808 33.3792 52.4249C33.4107 52.1925 33.4841 51.717 33.6414 51.1253C33.8197 50.28 34.1028 49.2657 34.2391 48.2091C34.2706 47.9449 34.3021 47.6808 34.2916 47.3849C34.2916 47.0996 34.2286 46.7932 34.1343 46.5185C33.9245 45.9902 33.6519 45.5042 33.3582 45.0604C32.7605 44.1728 32.0998 43.4015 31.5336 42.6619C31.2504 42.2815 30.9882 41.9223 30.7995 41.5736C30.7261 41.4045 30.6527 41.2355 30.6422 41.0981C30.6212 40.9502 30.6422 40.8868 30.7156 40.834C30.8834 40.686 31.219 40.6015 31.4706 40.5698C31.7433 40.5276 31.995 40.5276 32.1837 40.5276C32.5822 40.5592 32.8129 40.6015 32.8129 40.6015C32.792 40.6015 33.7358 40.6543 35.0152 41.2672C35.6444 41.5842 36.3365 42.0385 36.9237 42.7147C37.5215 43.3804 37.9724 44.2574 38.2136 45.2294C38.4443 46.2121 38.4967 47.2581 38.3185 48.2302C38.1087 49.1811 37.6893 50.0793 37.1649 50.7977C36.9237 51.1464 36.6196 51.5057 36.3679 51.7487L36.1163 52.0023L35.7283 52.351C35.0361 52.911 34.6796 53.2702 34.0713 53.7774H34.1028Z" fill="black"/>
<path d="M30.4953 38.9955C30.4953 38.9955 35.8226 35.6883 33.8511 30.0566C32.0684 25.0272 25.9022 25.3442 25.21 26.4853C24.5074 27.6264 28.8594 30.2362 29.5096 32.3494C30.1388 34.4626 28.1778 39.9887 30.4953 39.006V38.9955Z" fill="#FAED2F"/>
<path d="M30.4953 38.9955C31.2294 38.7208 31.7223 38.446 32.3829 37.7698L32.75 37.3472L32.9912 37.0302C33.2009 36.7555 33.4945 36.3328 33.7252 35.9208C34.1657 35.0755 34.5012 34.0506 34.5642 32.9623C34.6376 31.874 34.4278 30.7645 34.0398 29.7502C33.6623 28.7464 33.0226 27.8483 32.2781 27.1932C31.544 26.5593 30.7051 26.1366 29.971 25.8936C28.5343 25.4181 27.5171 25.5132 27.5276 25.5026C27.5276 25.5026 27.2864 25.5026 26.8459 25.5343C26.6362 25.566 26.3531 25.6083 26.0489 25.6928C25.7343 25.7985 25.3883 25.8619 25.0317 26.2423C24.9478 26.3479 24.8744 26.4853 24.843 26.6332C24.8115 26.7811 24.822 26.9291 24.843 27.0559C24.9269 27.2989 25.0527 27.4996 25.1786 27.6898C25.4407 28.0808 25.7553 28.4083 26.0909 28.7464C26.7411 29.4332 27.4961 30.12 28.1882 30.8596C28.5028 31.2506 28.8174 31.6626 29.0272 32.0853C29.2684 32.5079 29.2998 32.9728 29.3103 33.48C29.3103 34.4732 29.1635 35.5087 29.1006 36.3962C29.0167 36.9985 28.9957 37.5162 28.9957 37.7698C29.0167 38.2558 29.0691 38.6679 29.3523 39.0377C29.5096 39.2068 29.7717 39.3019 29.9605 39.2491C30.1702 39.2491 30.3275 39.1434 30.4848 39.0166C29.583 39.1751 29.6459 38.6257 29.6144 37.7698C29.6144 37.5374 29.6354 37.0513 29.6878 36.4491C29.7717 35.5721 29.9185 34.5472 29.9185 33.4906C29.9185 33.2053 29.9185 32.9306 29.8556 32.6453C29.8137 32.3706 29.7193 32.0642 29.583 31.8211C29.3313 31.2928 28.9852 30.8702 28.6392 30.4687C27.9261 29.6762 27.171 28.9894 26.5104 28.3343C26.1748 27.9962 25.8812 27.6687 25.6505 27.3517C25.5456 27.1932 25.4407 27.0347 25.4197 26.8974C25.3883 26.7494 25.3988 26.686 25.4617 26.6226C25.619 26.443 25.9336 26.3268 26.1958 26.2528C26.4474 26.1789 26.6886 26.1472 26.8774 26.1155C27.2759 26.0838 27.5066 26.0838 27.5066 26.0838C27.5066 26.1049 28.4294 26.0204 29.7717 26.4536C30.4429 26.6649 31.1979 27.0453 31.8691 27.637C32.5402 28.2181 33.1275 29.0106 33.4735 29.9615C33.8406 30.9125 34.0189 31.9268 33.9559 32.92C33.8825 33.9132 33.5784 34.843 33.1589 35.6249C32.9492 36.0053 32.6975 36.3962 32.4878 36.6815L32.2781 36.9562L31.9215 37.3577C31.3133 37.9917 30.9987 38.4143 30.4743 38.9849L30.4953 38.9955Z" fill="black"/>
<path d="M22.0955 27.3411C23.3539 26.7389 25.682 31.2294 26.458 33.406C27.234 35.5721 27.3284 39.5343 25.6925 39.9781C24.0565 40.4324 22.127 37.2521 21.6027 35.0966C21.0783 32.9517 20.8686 27.9117 22.0955 27.3306V27.3411Z" fill="#FAED2F"/>
<path d="M22.0955 27.3411C22.2843 27.2989 22.4416 27.3728 22.5674 27.4468L22.9135 27.7638C23.1232 28.0068 23.333 28.2921 23.5951 28.6302C23.6685 28.7358 23.7839 28.8626 23.9097 29.0528L24.1195 29.3698C24.2663 29.5811 24.455 29.8981 24.6438 30.2151C24.9794 30.849 25.3359 31.5358 25.6715 32.2649C25.9861 33.0045 26.3007 33.7441 26.458 34.526C26.7936 36.0792 26.7726 37.6747 26.437 38.689C26.2797 39.1962 26.0176 39.5026 25.8078 39.6189C25.5771 39.7245 25.4303 39.7245 25.4303 39.7245C25.4303 39.7245 25.294 39.7457 25.0318 39.6611C24.7696 39.5872 24.4026 39.3441 24.0251 38.9743C23.2596 38.203 22.4521 36.8611 21.9802 35.3396C21.5817 33.8287 21.4978 32.0641 21.5083 30.6906C21.5083 30.0777 21.5607 29.6023 21.5922 29.3592L21.739 28.2498C21.8019 27.9328 21.8229 27.6158 22.106 27.3306C21.8963 27.3728 21.7495 27.4996 21.6236 27.6475C21.5188 27.7849 21.4139 27.9434 21.3405 28.1019C21.1727 28.4189 21.0783 28.7992 21.0259 29.2641C20.9839 29.5283 20.921 30.0355 20.921 30.6589C20.921 31.3668 20.921 32.1909 21.0049 33.0045C21.1098 33.8287 21.1937 34.674 21.4244 35.4981C21.9277 37.1358 22.7667 38.5306 23.6266 39.4075C24.0461 39.8302 24.497 40.1155 24.885 40.2317C25.2416 40.3374 25.4932 40.3162 25.4827 40.3162C25.4827 40.3162 25.7239 40.3374 26.1119 40.1472C26.479 39.9358 26.846 39.4709 27.0348 38.8792C27.4228 37.6958 27.4228 36.0581 27.0872 34.3992C26.9194 33.554 26.5839 32.7509 26.2483 32.0113C25.9127 31.2717 25.5457 30.5321 25.1786 29.8981L24.6543 29.0211L24.4446 28.7041C24.2977 28.4928 24.1824 28.3555 24.0985 28.2498C23.8049 27.88 23.5322 27.6158 23.2176 27.4045C23.0603 27.32 22.903 27.246 22.6933 27.2143C22.515 27.1721 22.2738 27.1932 22.1375 27.32L22.0955 27.3411Z" fill="black"/>
<path d="M26.1329 41.6581C27.3703 41.0558 29.6983 45.5464 30.4848 47.723C31.2713 49.8891 31.3552 53.8513 29.7193 54.3057C28.0939 54.76 26.1538 51.5796 25.6295 49.4453C25.1261 47.2792 24.9164 42.2392 26.1329 41.6581Z" fill="#FAED2F"/>
<path d="M26.1328 41.6581C26.3216 41.6264 26.4789 41.6898 26.6047 41.7849C26.7306 41.8694 26.8354 41.9751 26.9403 42.1019C27.1501 42.3344 27.3598 42.5985 27.622 42.9472L27.9366 43.3698L28.1463 43.6868L28.6497 44.5321C29.0062 45.1661 29.3627 45.8634 29.6983 46.5925C30.0129 47.3321 30.3275 48.0717 30.4848 48.8642C30.7994 50.4174 30.7994 52.0023 30.4639 53.0166C30.2961 53.5238 30.0234 53.8408 29.8137 53.9464C29.6039 54.0521 29.4362 54.0521 29.4466 54.0521C29.4257 54.0521 29.2893 54.0838 29.0272 53.9993C28.7755 53.9253 28.398 53.7034 28.0204 53.3125C27.2549 52.5411 26.4474 51.1993 25.986 49.6777C25.5875 48.1562 25.4931 46.4023 25.5141 45.0076C25.5141 44.4159 25.5666 43.9298 25.598 43.6868L25.7448 42.5774C25.8077 42.2604 25.8287 41.9434 26.1119 41.6581C25.9021 41.7004 25.7448 41.8377 25.6295 41.9751C25.5036 42.1125 25.4197 42.271 25.3149 42.44C25.1681 42.757 25.0632 43.1374 25.0003 43.6023C24.9688 43.8559 24.9269 44.3736 24.9164 44.9759C24.8954 45.6944 24.9164 46.5185 25.0003 47.3427C25.0737 48.1668 25.1785 49.0121 25.4197 49.8362C25.9021 51.4634 26.7516 52.8581 27.601 53.7245C28.0204 54.1472 28.4819 54.4642 28.8594 54.5698C29.2264 54.6755 29.4676 54.6438 29.4676 54.6438C29.4676 54.6438 29.7088 54.6649 30.0758 54.4747C30.4639 54.2951 30.8099 53.8196 31.0197 53.2279C31.3972 52.034 31.3972 50.3962 31.0616 48.7479C30.8938 47.9027 30.5582 47.0996 30.2227 46.36C29.9081 45.5993 29.5305 44.8808 29.174 44.2468L28.6287 43.3593L28.4189 43.0423L28.0834 42.5879C27.7897 42.2181 27.5066 41.954 27.192 41.7638C27.0347 41.6581 26.8774 41.5947 26.6677 41.5525C26.4789 41.5208 26.2482 41.5525 26.1119 41.6581H26.1328Z" fill="black"/>
</svg>
