<?xml version="1.0" encoding="utf-8"?>
<!-- Generator: Adobe Illustrator 24.2.0, SVG Export Plug-In . SVG Version: 6.00 Build 0)  -->
<svg version="1.1" id="Layer_1" xmlns="http://www.w3.org/2000/svg" xmlns:xlink="http://www.w3.org/1999/xlink" x="0px" y="0px"
	 viewBox="0 0 168 102" style="enable-background:new 0 0 168 102;" xml:space="preserve">
<path d="M90.5,9.7c0.5-0.1,1.5,1.9,2,1.7c0.6-0.2,1.4-1.9,2.2-1.8c0.3,0,1.6,2.7,1.6,2.7c10.8,0.5,24,13.5,25.7,14.8
	c0.8,0.6,4.3,4.2,10.6,7c2.6,1.1,5.2,1.6,7.7,1.4c3.3-0.2,6.9-3.1,9.1-7c2.8-4.8,4-13.3,12.1-18.1c1.1-0.7,3.7-2.2,5.2-0.3
	c1.2,1.5,0.2,4.1-1,5.3c-0.8,0.7-2.2,1.5-4.9,2.8c-0.9,0.4-2.4,1.6-3,2c-2.9,2.2-5,7.2-7.3,12.7c0,0-1,2.7-5.4,5.6
	c-0.8,0.5-0.1,0.9,0.7,1.9c1,1.4,3.1,6.9,2.8,15.4c-0.1,1.5,0.6,2.2,1.2,3.4c1.2,2.1,3.5,1.7,3.5,4.4c-0.1,3.7,2.7,4.6,1.8,6.3
	c-0.6,1.3-0.4,2.5-0.4,3.7c0,0.6,0.3,1.5-1,1.5c-5.3-0.3-4.9-7.3-4.8-9.8c0.1-0.3-0.1-0.9-0.2-0.9c-0.2-0.2-3.5-2.7-3.7-3
	c-4-4-6.6-7.7-8.1-11.4c-1-2.5-2-5-3.7-6.5c-1.9-1.8-4.3-2.7-6.3-2.8c-14.6-0.1-17.6-6.5-21.6-9.7c-0.1-0.1-0.5-0.3-0.7-0.3
	c-0.2,0-0.4,0.3-0.5,0.4c-1.5,1.6-3.1,2.2-5.2,2.2c-4.9,0-10.2-4.3-11.2-3.4c-0.7,0.7-0.1,2.3-1.4,2.6c-1.9,0.4-3.9-1.5-3.7-3.1
	c0.3-2.9,3.2-3.7,5.8-4c2.1-0.2,3.8,0.3,4.2,0.4c1.2,0.2,1.4-1.3,1.2-2.2c-0.2-1-1.2-1.2-2.1-1.5C90.4,22,89,23,88.1,22.7
	c-1-0.4-1.1-0.9-2-1.6c-1.1-0.9-2.4-1.2-2.4-2.6c0-1.2,1.5-1.3,2-2.5c0.2-0.6,0.1-1.2,0.3-1.5c0.5-0.9,1.5-0.9,2.2-1.7
	C89.4,11.8,89.9,9.8,90.5,9.7 M43.3,87.3c-1,0-1.9-0.8-1.9-1.9l0-33.5h-11v36.9c0,1.8,1.5,3.3,3.2,3.3h19.3c1.8,0,3.3-1.5,3.3-3.3
	V52h-11v33.5C45.1,86.4,44.3,87.2,43.3,87.3 M80.2,52H63.5c-2,0-3.6,1.6-3.6,3.6v36.5h11V58.6c0-1,0.9-1.8,1.9-1.8
	c1,0,1.9,0.8,1.9,1.8v33.5h11V58.6c0-1,0.8-1.8,1.9-1.8c1,0,1.9,0.8,1.9,1.8v33.5h11V55.6c0-2-1.6-3.6-3.6-3.6H80.2z M23,82
	c2,0,3.6-1.6,3.6-3.6V55.6c0-2-1.5-3.6-3.5-3.6H0.9v40.1h11V82H23 M15.6,75.2c0,1.1-0.9,1.9-1.9,1.9h-1.9V56.8h1.9
	c1,0,1.9,0.8,1.9,1.9V75.2z M119,92.1h11V55.6c0-2-1.6-3.6-3.6-3.6h-18.6c-2,0-3.6,1.6-3.6,3.6v36.5h11V82h3.7V92.1 M115.2,77.1
	V58.6c0-1,0.9-1.8,1.9-1.8c1,0,1.8,0.8,1.9,1.8v18.5H115.2z M137,90.3c0-1.3-1-2.2-2.3-2.2c-1.2,0-2.2,1-2.2,2.2
	c0,1.2,1,2.2,2.2,2.2C136,92.5,137,91.5,137,90.3 M134.8,88.4c1,0,1.9,0.9,1.9,1.9c0,1.1-0.8,1.9-1.9,1.9c-1,0-1.9-0.9-1.9-1.9
	C132.9,89.3,133.7,88.4,134.8,88.4L134.8,88.4z M135.8,91.6l-0.8-1.1l0,0c0.3-0.1,0.5-0.4,0.5-0.7c0-0.5-0.4-0.8-1.1-0.8H134v2.6
	h0.5v-1l0.8,1H135.8 M134.5,90.2v-0.7h0.1c0.3,0,0.5,0.1,0.5,0.3C135.1,90,134.9,90.2,134.5,90.2L134.5,90.2z"/>
</svg>
