<svg width="176" height="174" viewBox="0 0 176 174" fill="none" xmlns="http://www.w3.org/2000/svg">
<ellipse cx="88" cy="87" rx="88" ry="87" fill="url(#paint0_linear)"/>
<path d="M56.2061 68.1113C56.3753 60.1133 59.1683 53.7021 64.585 48.8779C70.0016 44.0114 77.4919 41.5781 87.0557 41.5781C96.0693 41.5781 103.348 43.8633 108.892 48.4336C114.435 52.9616 117.207 58.8649 117.207 66.1436C117.207 70.8408 116.086 74.9456 113.843 78.458C111.6 81.9281 108.193 84.9961 103.623 87.6621C99.3913 90.1165 96.5348 92.3171 95.0537 94.2637C93.5726 96.2103 92.832 98.7493 92.832 101.881V105.245H76.0107L75.8838 101.563C75.4606 96.6546 76.1377 92.6133 77.915 89.4395C79.7347 86.2656 82.8662 83.3669 87.3096 80.7432C91.4144 78.2887 94.2074 76.0882 95.6885 74.1416C97.2119 72.195 97.9736 69.7194 97.9736 66.7148C97.9736 63.668 96.8522 61.1712 94.6094 59.2246C92.4089 57.278 89.5101 56.3047 85.9131 56.3047C82.2738 56.3047 79.3327 57.3838 77.0898 59.542C74.847 61.6579 73.6198 64.5143 73.4082 68.1113H56.2061ZM92.0068 132.73C89.9756 134.635 87.5212 135.587 84.6436 135.587C81.766 135.587 79.3115 134.635 77.2803 132.73C75.2913 130.784 74.2969 128.414 74.2969 125.621C74.2969 122.828 75.2913 120.479 77.2803 118.575C79.3115 116.629 81.766 115.655 84.6436 115.655C87.5212 115.655 89.9756 116.629 92.0068 118.575C94.0381 120.479 95.0537 122.828 95.0537 125.621C95.0537 128.414 94.0381 130.784 92.0068 132.73Z" fill="white"/>
<defs>
<linearGradient id="paint0_linear" x1="0" y1="0" x2="209.228" y2="62.1667" gradientUnits="userSpaceOnUse">
<stop stop-color="#08D87E"/>
<stop offset="1" stop-color="#156AE9"/>
</linearGradient>
</defs>
</svg>
