<?xml version="1.0" encoding="utf-8"?>
<!-- Generator: Adobe Illustrator 24.2.0, SVG Export Plug-In . SVG Version: 6.00 Build 0)  -->
<svg version="1.1" id="Layer_1" xmlns="http://www.w3.org/2000/svg" xmlns:xlink="http://www.w3.org/1999/xlink" x="0px" y="0px"
	 viewBox="0 0 168 102" style="enable-background:new 0 0 168 102;" xml:space="preserve">
<g>
	<path d="M10.2,49.2c0.3,0,0.7,0,1,0c18,0,35.9,0,53.9,0c0.9,0,1.8,0.2,2.6,0.6c13.2,7.5,26.4,15.1,39.5,22.7
		c10.1,5.9,20.1,12,30.1,18c0.5,0.3,0.9,0.6,1.3,1c-2.3-1-4.5-1.9-6.8-2.9c-16.5-7-32.9-14.2-49.7-20.3c-19-6.9-38.4-12.3-58.2-16.4
		c-4.4-0.9-8.9-1.7-13.4-2.6c-0.2,0-0.3-0.1-0.5-0.2C10.2,49.3,10.2,49.2,10.2,49.2z"/>
	<path d="M71.6,69.7c-2.4,1.1-4.5,1.9-6.5,2.9C57,76.5,49.6,81.4,43.4,88c-0.1,0.1-0.2,0.2-0.3,0.3c-1,1.9-2.7,2.1-4.7,2.1
		c-7.1-0.1-14.3,0-21.4,0c-0.4,0-0.8,0-1.5,0c1.4-1.6,2.6-3,3.9-4.4c6.7-7,14.8-11.9,23.5-15.9c4-1.8,8.1-3.4,12.2-5
		c0.4-0.2,0.9-0.2,1.3-0.1C61.4,66.5,66.3,68.1,71.6,69.7z"/>
	<path d="M24.1,28.9c0.4,0.2,0.6,0.2,0.8,0.3c2.6,1.1,4.4,2.9,4.5,5.9c0.1,2.8,0,5.5,0,8.4c-2.3,0-4.6,0-7.1,0c0-1.2,0-2.4,0-3.5
		c0-1.2,0-2.3-0.1-3.5c-0.4-3-2-4.6-5.1-4.7c-1.8-0.1-3.5,0-5.3,0c0-2,0-3.8,0-5.8c2.2,0,4.4,0,6.5,0c2.6,0,4.5-1.6,4.7-4.1
		c0.3-2.9-1.1-5.1-3.8-5.3c-3.2-0.3-6.5-0.1-9.8-0.1c0,7,0,14,0,21c-2.3,0-4.5,0-6.7,0c0-9,0-18,0-27.1c0.3,0,0.6-0.1,0.9-0.1
		c5.2,0,10.5,0,15.7,0c3.3,0,6.2,1,8.5,3.4c4.2,4.4,2.9,11.6-2.5,14.4C25.1,28.5,24.7,28.6,24.1,28.9z"/>
	<path d="M89.3,56.5c25.1-4.6,50.1-6.4,75.3-8c-1.9,0.5-3.9,1-5.8,1.5c-17.4,4.2-34.5,9.5-51,16.4c-0.7,0.3-1.2,0.3-1.9-0.1
		c-5.1-3-10.2-6-15.3-9C90.2,57.1,89.9,56.8,89.3,56.5z"/>
	<path d="M88.3,37.6c0-9.1,0-18.1,0-27.2c2.3,0,4.5,0,6.9,0c0,7.1,0,14.1,0,21.3c2.2,0,4.2,0.1,6.2,0c2.3-0.2,3.9-2.6,3.8-5.1
		c-0.1-2.4-2-4.3-4.4-4.4c-1,0-2,0-3.1,0c0-1.9,0-3.8,0-5.7c4.3-0.3,8.6-0.5,11.8,3.2c2.7,3.1,3.6,6.7,2.3,10.6
		c-1.3,4-4.5,6.2-8.6,7.1c-1.3,0.3-2.6,0.3-3.9,0.3C95.7,37.7,92,37.6,88.3,37.6z"/>
	<path d="M150.2,37.6c-2.5,0-4.7,0-7,0c0-9,0-18,0-27.1c2.3,0,4.6,0,7,0c0,4.2,0,8.5,0,12.9c2.2-0.1,4.4,0.6,6.2-1
		c1.7-1.6,1.7-3.7,1.7-5.9c2.3,0,4.5,0,6.7,0c1.1,4-0.9,7.6-5.6,9.9c5.8,1.7,6.3,6.2,5.9,11.2c-2.2,0-4.4,0-6.9,0c0-1,0-1.9,0-2.9
		c0-3.4-2-5.4-5.4-5.4c-0.8,0-1.7,0-2.6,0C150.2,32,150.2,34.7,150.2,37.6z"/>
	<path d="M89,76.2c-1,0.8-2.1,1.5-3.1,2.3c-4.2,3.1-7.9,6.7-10.8,11.1c-0.3,0.4-0.8,0.7-1.3,0.7c-7.3,0-14.6,0-21.9,0
		c-0.2,0-0.3,0-0.8,0c1.1-1.2,1.9-2.3,2.9-3.3c6.4-6.6,14-11.4,22.3-15.2c0.3-0.1,0.7-0.2,1-0.1c3.9,1.4,7.7,2.8,11.5,4.3
		C88.9,76,88.9,76.1,89,76.2z"/>
	<path d="M45.3,29.6c1.5-2.5,2.9-4.9,4.4-7.3c-2.3,0-4.4-0.2-6.5,0.1c-2.3,0.3-3.8,2.6-3.7,5c0.1,2.2,1.9,4.2,4.1,4.4
		c1.9,0.2,3.9,0.1,5.8,0.1c2.3,0,4.6,0,7,0c0,1.9,0,3.8,0,5.7c-0.2,0-0.4,0.1-0.5,0.1c-4.4,0-8.7,0-13.1,0
		c-5.5-0.1-10-4.7-10.1-10.3c-0.1-5.7,4.1-10.6,9.7-10.9c4.6-0.2,9.3,0,14.1,0c0,2,0,4,0,6c0,0.3-0.2,0.5-0.4,0.8
		c-1.2,1.9-2.4,3.8-3.6,5.7c-0.3,0.6-0.7,0.8-1.4,0.7C49.3,29.6,47.4,29.6,45.3,29.6z"/>
	<path d="M83.6,16.4c0,2.1,0,4,0,6c0,0.3-0.2,0.6-0.4,0.9c-1.2,1.9-2.4,3.8-3.6,5.6c-0.2,0.3-0.7,0.7-1.1,0.7c-1.9,0.1-3.9,0-6.1,0
		c1.5-2.5,2.9-4.8,4.3-7.2c-2.3,0-4.6-0.3-6.7,0.1c-2.2,0.4-3.6,2.7-3.4,4.9c0.2,2.3,2,4.3,4.2,4.4c3.8,0.2,7.6,0.1,11.4,0.1
		c0.5,0,0.9,0,1.4,0c0,2,0,3.8,0,5.7c-0.2,0-0.4,0.1-0.5,0.1c-4.3,0-8.7,0.1-13,0c-5.8-0.1-10.1-4.5-10.3-10.4
		c-0.2-5.4,3.9-10.1,9.4-10.7c0.5-0.1,0.9-0.1,1.4-0.1C74.9,16.4,79.2,16.4,83.6,16.4z"/>
	<path d="M127.6,38.6c-3.9-0.2-7.4-1.4-10-4.3c-4.7-5.3-3.1-13.7,3.4-16.8c4.4-2.1,9-2,13.4,0.1c4,1.9,6.1,5.9,5.7,10.4
		c-0.4,4.8-3,8-7.5,9.6C131,38.1,129.3,38.2,127.6,38.6z M133.1,27.2c0-3.1-2.5-5.6-5.6-5.6c-3.1,0-5.7,2.5-5.7,5.6
		c0,3.1,2.6,5.7,5.7,5.7C130.6,32.8,133.1,30.3,133.1,27.2z"/>
</g>
</svg>
