<?xml version="1.0" encoding="utf-8"?>
<svg xmlns="http://www.w3.org/2000/svg" viewBox="0 0 32 32" class="shareicon" aria-hidden="true" role="presentation" fill="white"><path d="M30.9 18.96c.2-.96.3-1.95.3-2.96C31.2 7.6 24.4.8 16 .8c-1 0-2 .1-2.96.3C11.8.4 10.34 0 8.8 0 3.94 0 0 3.94 0 8.8c0 1.54.4 3 1.1 4.24C.9 14 .8 15 .8 16c0 8.4 6.8 15.2 15.2 15.2 1 0 2-.1 2.96-.3 1.25.7 2.7 1.1 4.24 1.1 4.86 0 8.8-3.94 8.8-8.8 0-1.54-.4-2.98-1.1-4.24zm-7.48 2.72c-.2.57-.5 1.07-.85 1.5s-.78.8-1.27 1.12-1.02.56-1.6.75-1.15.34-1.78.43-1.24.15-1.86.15c-.62 0-1.27-.05-1.96-.15s-1.34-.25-1.98-.46-1.24-.5-1.8-.88-1.04-.82-1.4-1.37c-.2-.28-.35-.56-.47-.87s-.18-.63-.18-.96c0-.53.18-.96.54-1.27s.8-.47 1.3-.47c.4 0 .7.1.94.25s.47.38.67.64l.64.8s.48.6.8.84.7.47 1.17.63 1.05.25 1.76.25c.37 0 .75-.04 1.16-.14s.78-.26 1.13-.46.62-.48.85-.8.33-.7.33-1.13c0-.3-.05-.53-.15-.74s-.24-.4-.42-.55-.37-.27-.6-.38-.46-.2-.7-.25l-2.38-.6-2.37-.6c-.68-.18-1.3-.4-1.86-.67s-1.03-.6-1.42-1-.7-.87-.9-1.43-.3-1.2-.3-1.95c0-1.03.2-1.9.64-2.6s1-1.27 1.7-1.7 1.47-.76 2.35-.96 1.76-.3 2.63-.3c.38 0 .82.05 1.32.12s1.03.2 1.56.34 1.06.34 1.58.58.98.5 1.38.82.74.67 1 1.07.36.83.36 1.32c0 .27-.05.5-.15.7s-.25.4-.43.52-.38.24-.6.3-.47.1-.72.1c-.33 0-.6-.06-.82-.2s-.42-.3-.6-.5l-.62-.66s-.48-.45-.78-.65-.68-.38-1.12-.5-.98-.2-1.63-.2c-.35 0-.7.02-1.06.1s-.68.2-.96.36-.5.4-.7.66-.26.63-.26 1.04c0 .45.17.8.5 1.07s.73.5 1.26.66 1.12.32 1.8.44 1.36.27 2.06.43 1.4.37 2.07.6 1.28.6 1.8 1 .96.92 1.28 1.54.48 1.4.48 2.3c0 .73-.1 1.37-.3 1.94z"></path></svg>