<svg width="24" height="24" viewBox="0 0 24 24" fill="none" xmlns="http://www.w3.org/2000/svg">
<g clip-path="url(#clip0_518_982)">
<path d="M12.67 2.88L15.47 8.56L21.74 9.47L17.2 13.89L18.27 20.13L12.67 17.19L7.05997 20.13L8.12997 13.89L3.58997 9.47L9.85997 8.56L12.67 2.88Z" stroke="black" stroke-width="1.75" stroke-linecap="round" stroke-linejoin="round"/>
<path d="M6.26 6.32C6.88409 6.32 7.39 5.81408 7.39 5.19C7.39 4.56592 6.88409 4.06 6.26 4.06C5.63592 4.06 5.13 4.56592 5.13 5.19C5.13 5.81408 5.63592 6.32 6.26 6.32Z" fill="black"/>
<path d="M3.25 16.9C3.94036 16.9 4.5 16.3314 4.5 15.63C4.5 14.9286 3.94036 14.36 3.25 14.36C2.55964 14.36 2 14.9286 2 15.63C2 16.3314 2.55964 16.9 3.25 16.9Z" fill="black"/>
<path d="M13.01 23.19C13.7114 23.19 14.28 22.6214 14.28 21.92C14.28 21.2186 13.7114 20.65 13.01 20.65C12.3086 20.65 11.74 21.2186 11.74 21.92C11.74 22.6214 12.3086 23.19 13.01 23.19Z" fill="black"/>
</g>
<defs>
<clipPath id="clip0_518_982">
<rect width="20.61" height="21.19" fill="white" transform="translate(2 2)"/>
</clipPath>
</defs>
</svg>
