<svg width="48" height="48" viewBox="0 0 48 48" fill="none"
    xmlns="http://www.w3.org/2000/svg">
    <path d="M24 4.32401C30.4042 4.32401 31.1634 4.3451 33.6942 4.46463C36.0351 4.57009 37.3076 4.96382 38.1511 5.29427C39.2689 5.73019 40.0703 6.25048 40.9069 7.08715C41.7434 7.92383 42.2636 8.72536 42.6995 9.84327C43.0299 10.687 43.4165 11.9596 43.529 14.3009C43.6415 16.832 43.6696 17.5913 43.6696 23.9965C43.6696 30.4016 43.6485 31.161 43.529 33.6921C43.4235 36.0334 43.0299 37.306 42.6995 38.1497C42.2636 39.2676 41.7434 40.0691 40.9069 40.9058C40.0703 41.7425 39.2689 42.2628 38.1511 42.6987C37.3076 43.0291 36.0351 43.4158 33.6942 43.5283C31.1634 43.6408 30.4042 43.669 24 43.669C17.5958 43.669 16.8366 43.6479 14.3058 43.5283C11.9648 43.4229 10.6924 43.0291 9.84886 42.6987C8.73111 42.2628 7.9297 41.7425 7.09315 40.9058C6.25659 40.0691 5.73638 39.2676 5.30053 38.1497C4.97012 37.306 4.58348 36.0334 4.471 33.6921C4.35852 31.161 4.3304 30.4016 4.3304 23.9965C4.3304 17.5913 4.35149 16.832 4.471 14.3009C4.57645 11.9596 4.97012 10.687 5.30053 9.84327C5.73638 8.72536 6.25659 7.92383 7.09315 7.08715C7.9297 6.25048 8.73111 5.73019 9.84886 5.29427C10.6924 4.96382 11.9648 4.57712 14.3058 4.46463C16.8366 4.3451 17.5958 4.32401 24 4.32401ZM24 0C17.4833 0 16.6678 0.0281241 14.109 0.147649C11.5571 0.267175 9.81371 0.667936 8.28119 1.26556C6.7065 1.87022 5.3638 2.69284 4.03515 4.02871C2.69947 5.36458 1.88401 6.70045 1.26538 8.28241C0.674868 9.80811 0.267135 11.5518 0.147627 14.111C0.0281188 16.6703 0 17.4859 0 24.0035C0 30.5212 0.0281188 31.3367 0.147627 33.896C0.267135 36.4482 0.667838 38.1919 1.26538 39.7246C1.87698 41.2925 2.69947 42.6354 4.03515 43.9643C5.37083 45.3001 6.7065 46.1157 8.28822 46.7344C9.81371 47.325 11.5571 47.7328 14.116 47.8523C16.6749 47.9719 17.4903 48 24.007 48C30.5237 48 31.3392 47.9719 33.8981 47.8523C36.4499 47.7328 38.1933 47.3321 39.7258 46.7344C41.2935 46.1227 42.6362 45.3001 43.9649 43.9643C45.3005 42.6284 46.116 41.2925 46.7346 39.7106C47.3251 38.1849 47.7329 36.4412 47.8524 33.8819C47.9719 31.3227 48 30.5071 48 23.9895C48 17.4718 47.9719 16.6562 47.8524 14.097C47.7329 11.5447 47.3322 9.80108 46.7346 8.26834C46.123 6.70045 45.3005 5.35755 43.9649 4.02871C42.6292 2.69284 41.2935 1.87725 39.7118 1.25853C38.1863 0.667937 36.4429 0.260144 33.884 0.140618C31.3322 0.0281236 30.5167 0 24 0Z" fill="black"/>
    <path fill-rule="evenodd" clip-rule="evenodd" d="M30.6759 20.7799C32.5145 22.0934 34.767 22.8664 37.1997 22.8664V18.1874C36.7392 18.1876 36.28 18.1396 35.8296 18.0441V21.7272C33.3971 21.7272 31.1449 20.9542 29.3058 19.6406V29.1889C29.3058 33.9655 25.4318 37.8374 20.653 37.8374C18.87 37.8374 17.2127 37.2986 15.8359 36.3746C17.4072 37.9804 19.5985 38.9766 22.0227 38.9766C26.8018 38.9766 30.6761 35.1047 30.6761 30.328V20.7799H30.6759ZM32.366 16.0594C31.4263 15.0334 30.8094 13.7074 30.6759 12.2414V11.6396H29.3776C29.7043 13.5028 30.819 15.0946 32.366 16.0594V16.0594ZM18.8584 32.7094C18.3335 32.0214 18.0498 31.1797 18.051 30.3144C18.051 28.1297 19.8231 26.3585 22.0093 26.3585C22.4166 26.3582 22.8216 26.4207 23.21 26.5438V21.7603C22.7562 21.6982 22.2983 21.6718 21.8404 21.6815V25.4047C21.4519 25.2816 21.0468 25.2191 20.6392 25.2194C18.453 25.2194 16.6811 26.9906 16.6811 29.1755C16.6811 30.7202 17.5668 32.0579 18.8584 32.7094V32.7094Z" fill="#EE1D52"/>
    <path fill-rule="evenodd" clip-rule="evenodd" d="M29.3058 19.6407C31.1449 20.9542 33.3971 21.7272 35.8296 21.7272V18.0441C34.4718 17.7552 33.2697 17.0459 32.3659 16.0594C30.819 15.0946 29.7043 13.5028 29.3775 11.6396H25.9673V30.3278C25.9595 32.5064 24.1905 34.2704 22.009 34.2704C20.7235 34.2704 19.5814 33.6581 18.8582 32.7094C17.5666 32.0579 16.6809 30.7203 16.6809 29.1755C16.6809 26.9907 18.4528 25.2194 20.639 25.2194C21.0578 25.2194 21.4615 25.2846 21.8402 25.4047V21.6815C17.1454 21.7785 13.3696 25.6126 13.3696 30.328C13.3696 32.6818 14.3099 34.8158 15.8359 36.3748C17.2126 37.2988 18.87 37.8376 20.6529 37.8376C25.4317 37.8376 29.3058 33.9655 29.3058 29.1891V19.6407Z" fill="black"/>
    <path fill-rule="evenodd" clip-rule="evenodd" d="M35.8298 18.0435V17.0476C34.6053 17.0495 33.405 16.7067 32.3661 16.0586C33.2857 17.0649 34.4966 17.7588 35.8298 18.0435V18.0435ZM29.3777 11.639C29.3465 11.461 29.3226 11.2818 29.306 11.1018V10.5H24.5973V29.1883C24.5897 31.3668 22.8209 33.1308 20.6392 33.1308C19.9986 33.1308 19.394 32.9789 18.8584 32.7088C19.5817 33.6575 20.7237 34.2698 22.0093 34.2698C24.1906 34.2698 25.9598 32.5058 25.9675 30.3272V11.639H29.3777ZM21.8406 21.6809V20.6207C21.4471 20.5669 21.0505 20.54 20.6533 20.5402C15.8741 20.5402 12 24.4122 12 29.1883C12 32.1827 13.5226 34.8217 15.8363 36.374C14.3103 34.815 13.37 32.681 13.37 30.3272C13.37 25.6119 17.1457 21.7778 21.8406 21.6809V21.6809Z" fill="#69C9D0"/>
</svg>
