<svg width="48" height="48" viewBox="0 0 48 48" fill="none"
    xmlns="http://www.w3.org/2000/svg">
    <path d="M24 4.32401C30.4042 4.32401 31.1634 4.3451 33.6942 4.46463C36.0351 4.57009 37.3076 4.96382 38.1511 5.29427C39.2689 5.73019 40.0703 6.25048 40.9069 7.08715C41.7434 7.92383 42.2636 8.72536 42.6995 9.84327C43.0299 10.687 43.4165 11.9596 43.529 14.3009C43.6415 16.832 43.6696 17.5913 43.6696 23.9965C43.6696 30.4016 43.6485 31.161 43.529 33.6921C43.4235 36.0334 43.0299 37.306 42.6995 38.1497C42.2636 39.2676 41.7434 40.0691 40.9069 40.9058C40.0703 41.7425 39.2689 42.2628 38.1511 42.6987C37.3076 43.0291 36.0351 43.4158 33.6942 43.5283C31.1634 43.6408 30.4042 43.669 24 43.669C17.5958 43.669 16.8366 43.6479 14.3058 43.5283C11.9648 43.4229 10.6924 43.0291 9.84886 42.6987C8.73111 42.2628 7.9297 41.7425 7.09315 40.9058C6.25659 40.0691 5.73638 39.2676 5.30053 38.1497C4.97012 37.306 4.58348 36.0334 4.471 33.6921C4.35852 31.161 4.3304 30.4016 4.3304 23.9965C4.3304 17.5913 4.35149 16.832 4.471 14.3009C4.57645 11.9596 4.97012 10.687 5.30053 9.84327C5.73638 8.72536 6.25659 7.92383 7.09315 7.08715C7.9297 6.25048 8.73111 5.73019 9.84886 5.29427C10.6924 4.96382 11.9648 4.57712 14.3058 4.46463C16.8366 4.3451 17.5958 4.32401 24 4.32401ZM24 0C17.4833 0 16.6678 0.0281241 14.109 0.147649C11.5571 0.267175 9.81371 0.667936 8.28119 1.26556C6.7065 1.87022 5.3638 2.69284 4.03515 4.02871C2.69947 5.36458 1.88401 6.70045 1.26538 8.28241C0.674868 9.80811 0.267135 11.5518 0.147627 14.111C0.0281188 16.6703 0 17.4859 0 24.0035C0 30.5212 0.0281188 31.3367 0.147627 33.896C0.267135 36.4482 0.667838 38.1919 1.26538 39.7246C1.87698 41.2925 2.69947 42.6354 4.03515 43.9643C5.37083 45.3001 6.7065 46.1157 8.28822 46.7344C9.81371 47.325 11.5571 47.7328 14.116 47.8523C16.6749 47.9719 17.4903 48 24.007 48C30.5237 48 31.3392 47.9719 33.8981 47.8523C36.4499 47.7328 38.1933 47.3321 39.7258 46.7344C41.2935 46.1227 42.6362 45.3001 43.9649 43.9643C45.3005 42.6284 46.116 41.2925 46.7346 39.7106C47.3251 38.1849 47.7329 36.4412 47.8524 33.8819C47.9719 31.3227 48 30.5071 48 23.9895C48 17.4718 47.9719 16.6562 47.8524 14.097C47.7329 11.5447 47.3322 9.80108 46.7346 8.26834C46.123 6.70045 45.3005 5.35755 43.9649 4.02871C42.6292 2.69284 41.2935 1.87725 39.7118 1.25853C38.1863 0.667937 36.4429 0.260144 33.884 0.140618C31.3322 0.0281236 30.5167 0 24 0Z" fill="#1DA1F2"/>
    <path d="M19.4526 36C30.2071 36 36.0918 26.7638 36.0918 18.7677C36.0918 18.5079 36.0918 18.248 36.0804 17.9882C37.2209 17.1378 38.2131 16.063 39 14.8465C37.9508 15.3307 36.8217 15.6496 35.6357 15.8031C36.8445 15.0591 37.7683 13.8661 38.2131 12.4488C37.084 13.1457 35.8295 13.6417 34.4952 13.9134C33.4232 12.7323 31.9064 12 30.2299 12C27.0024 12 24.3794 14.7165 24.3794 18.0591C24.3794 18.5315 24.4364 18.9921 24.5276 19.4409C19.6693 19.1929 15.3583 16.7717 12.473 13.1102C11.9712 14.0079 11.6861 15.0472 11.6861 16.1575C11.6861 18.2598 12.7239 20.1142 14.2863 21.2008C13.3283 21.1654 12.4274 20.8937 11.6405 20.4449V20.5276C11.6405 23.4567 13.6591 25.9134 16.3277 26.4685C15.8373 26.6102 15.3241 26.6811 14.7881 26.6811C14.4118 26.6811 14.0468 26.6457 13.6933 26.5748C14.4346 28.9843 16.6014 30.7323 19.1561 30.7795C17.1489 32.4094 14.6285 33.378 11.8914 33.378C11.4238 33.378 10.9562 33.3543 10.5 33.2953C13.0774 34.9961 16.1567 36 19.4526 36" fill="#1DA1F2"/>
</svg>
