<?xml version="1.0" encoding="utf-8"?>
<svg xmlns="http://www.w3.org/2000/svg" viewBox="0 0 32 32" class="shareicon" aria-hidden="true" role="presentation" fill="white"><path d="M29.438 9.098c0.011 0.154 0.019 0.305 0.025 0.455c0.005 0.148 0.008 0.3 0.008 0.454 c0 1.389-0.149 2.762-0.446 4.118c-0.298 1.356-0.728 2.667-1.29 3.937c-0.815 1.839-1.836 3.485-3.059 4.936 c-1.224 1.45-2.61 2.676-4.16 3.679c-1.548 1.005-3.237 1.771-5.068 2.3s-3.749 0.969-5.755 0.969 c-1.897 0-3.745-0.438-5.549-0.962c-1.801-0.524-4.667-2.241-4.105-2.241c1.576 0 3.759-0.252 5.229-0.761 c1.473-0.506 2.825-1.244 4.06-2.216c-0.739-0.01-1.45-0.135-2.133-0.371s-1.309-0.567-1.876-0.992 c-0.569-0.425-1.065-0.929-1.488-1.514c-0.425-0.583-0.753-1.229-0.985-1.934c0.22 0.033 0.438 0.061 0.654 0.081 c0.214 0.023 0.432 0.033 0.653 0.033c0.617 0 1.224-0.081 1.819-0.247c-0.815-0.165-1.563-0.458-2.24-0.878 c-0.679-0.417-1.266-0.929-1.762-1.53c-0.496-0.6-0.882-1.278-1.158-2.033C0.538 13.626 0.4 12.835 0.4 12.008v-0.083 c0.971 0.551 2.023 0.843 3.158 0.876c-0.485-0.331-0.917-0.709-1.299-1.132c-0.379-0.425-0.702-0.885-0.967-1.381 s-0.468-1.02-0.612-1.571S0.466 7.598 0.466 7.014c0-0.617 0.078-1.221 0.232-1.811C0.852 4.614 1.09 4.054 1.409 3.525 c0.882 1.091 1.864 2.07 2.944 2.935c1.08 0.866 2.23 1.608 3.449 2.225c1.217 0.617 2.493 1.105 3.828 1.464 c1.334 0.357 2.701 0.57 4.101 0.636c-0.066-0.253-0.113-0.515-0.141-0.786c-0.027-0.27-0.041-0.537-0.041-0.801 c0-0.959 0.182-1.86 0.546-2.704c0.364-0.842 0.86-1.579 1.488-2.207c0.628-0.628 1.365-1.124 2.207-1.488 c0.845-0.364 1.745-0.742 2.704-0.742c0.971 0 1.893 0.387 2.771 0.767c0.875 0.382 1.645 0.924 2.306 1.629 c0.782-0.154 1.54-0.373 2.273-0.653c0.734-0.282 1.442-0.626 2.126-1.034c-0.253 0.805-0.642 1.538-1.166 2.199 c-0.523 0.661-1.149 1.207-1.876 1.637l2.989-0.499L29.438 9.098z"></path></svg>