<svg width="24" height="24" viewBox="0 0 24 24" fill="none" xmlns="http://www.w3.org/2000/svg">
<g clip-path="url(#clip0_518_996)">
<path d="M11.7901 11.83C14.2643 11.83 16.2701 9.82423 16.2701 7.35C16.2701 4.87576 14.2643 2.87 11.7901 2.87C9.31582 2.87 7.31006 4.87576 7.31006 7.35C7.31006 9.82423 9.31582 11.83 11.7901 11.83Z" stroke="black" stroke-width="1.75" stroke-linecap="round" stroke-linejoin="round"/>
<path d="M9.82 14.59H13.76C14.6714 14.59 15.5738 14.7695 16.4158 15.1183C17.2578 15.467 18.0229 15.9782 18.6673 16.6227C19.3118 17.2671 19.823 18.0322 20.1717 18.8742C20.5205 19.7162 20.7 20.6186 20.7 21.53H2.87C2.87 20.6186 3.0495 19.7162 3.39827 18.8742C3.74704 18.0322 4.25824 17.2671 4.90267 16.6227C6.20418 15.3212 7.96939 14.59 9.81 14.59H9.82Z" stroke="black" stroke-width="1.75" stroke-linecap="round" stroke-linejoin="round"/>
</g>
<defs>
<clipPath id="clip0_518_996">
<rect width="19.58" height="20.43" fill="white" transform="translate(2 2)"/>
</clipPath>
</defs>
</svg>
